OptimisticAI_Journey.glyphspackage
{
glyphname = parenleft;
layers = (
{
layerId = m001;
shapes = (
{
closed = 1;
nodes = (
(248,1302,o),
(382,1470,q),
(598,1470,l),
(467,1303,o),
(325,866,o),
(325,384,o),
(467,-53,o),
(598,-220,q),
(382,-220,l),
(248,-52,o),
(102,387,o),
(102,864,o)
);
}
);
width = 637;
}
);
unicode = 40;
}
{
glyphname = asterisk;
layers = (
{
layerId = m001;
shapes = (
{
closed = 1;
nodes = (
(502,1460,l),
(486,1178,l),
(749,1281,l),
(802,1116,l),
(530,1044,l),
(709,825,l),
(568,723,l),
(415,962,l),
(262,723,l),
(122,825,l),
(301,1044,l),
(28,1116,l),
(81,1281,l),
(344,1178,l),
(328,1460,l)
);
}
);
width = 830;
}
);
unicode = 42;
}
{
glyphname = plus;
layers = (
{
layerId = m001;
shapes = (
{
closed = 1;
nodes = (
(488,793,l),
(488,1186,l),
(682,1186,l),
(682,793,l),
(1084,793,l),
(1084,607,l),
(682,607,l),
(682,215,l),
(488,215,l),
(488,607,l),
(86,607,l),
(86,793,l)
);
}
);
width = 1170;
}
);
unicode = 43;
}
{
glyphname = zero;
layers = (
{
layerId = m001;
shapes = (
{
closed = 1;
nodes = (
(356,1423,o),
(607,1423,qs),
(774,1423,o),
(1013,1250,o),
(1141,927,o),
(1141,474,o),
(1013,150,o),
(774,-23,o),
(607,-23,qs),
(356,-23,o),
(73,360,o),
(73,1040,o)
);
},
{
closed = 1;
nodes = (
(301,435,o),
(458,163,o),
(756,163,o),
(912,435,o),
(912,965,o),
(756,1237,o),
(458,1237,o),
(301,965,o)
);
}
);
width = 1214;
}
);
unicode = 48;
}
{
glyphname = one;
layers = (
{
layerId = m001;
shapes = (
{
closed = 1;
nodes = (
(89,922,l),
(89,1164,l),
(441,1400,l),
(671,1400,l),
(671,0,l),
(452,0,l),
(452,1171,l)
);
}
);
width = 895;
}
);
unicode = 49;
}
{
glyphname = eight;
layers = (
{
layerId = m001;
shapes = (
{
closed = 1;
nodes = (
(66,504,o),
(189,683,o),
(307,730,q),
(204,777,o),
(101,938,o),
(101,1041,qs),
(101,1211,o),
(361,1423,o),
(814,1423,o),
(1073,1211,o),
(1073,1041,qs),
(1073,938,o),
(971,777,o),
(867,730,q),
(986,683,o),
(1108,504,o),
(1108,383,qs),
(1108,200,o),
(834,-23,o),
(341,-23,o),
(66,200,o),
(66,383,qs)
);
},
{
closed = 1;
nodes = (
(723,632,o),
(451,632,o),
(293,506,o),
(293,281,o),
(450,154,o),
(724,154,o),
(881,281,o),
(881,506,o)
);
},
{
closed = 1;
nodes = (
(707,1246,o),
(467,1246,o),
(326,1132,o),
(326,923,o),
(467,810,o),
(707,810,o),
(848,923,o),
(848,1132,o)
);
}
);
width = 1174;
}
);
unicode = 56;
}
{
glyphname = nine;
layers = (
{
layerId = m001;
shapes = (
{
closed = 1;
nodes = (
(831,600,o),
(632,495,o),
(512,495,qs),
(382,495,o),
(177,611,o),
(59,814,o),
(59,946,qs),
(59,1089,o),
(186,1303,o),
(414,1423,o),
(564,1423,qs),
(824,1423,o),
(1113,1044,o),
(1113,700,qs),
(1113,474,o),
(979,150,o),
(730,-23,o),
(556,-23,qs),
(370,-23,o),
(119,173,o),
(81,346,q),
(302,346,l),
(360,161,o),
(556,161,qs),
(890,161,o),
(890,699,q)
);
},
{
closed = 1;
nodes = (
(689,1239,o),
(564,1239,qs),
(434,1239,o),
(284,1087,o),
(284,955,qs),
(284,830,o),
(435,678,o),
(565,678,qs),
(689,678,o),
(852,822,o),
(852,950,qs),
(852,1076,o)
);
}
);
width = 1178;
}
);
unicode = 57;
}
{
glyphname = colon;
layers = (
{
layerId = m001;
shapes = (
{
closed = 1;
nodes = (
(166,256,o),
(284,256,o),
(364,176,o),
(364,57,o),
(284,-23,o),
(166,-23,o),
(85,57,o),
(85,176,o)
);
},
{
closed = 1;
nodes = (
(166,1037,o),
(284,1037,o),
(364,957,o),
(364,838,o),
(284,758,o),
(166,758,o),
(85,838,o),
(85,957,o)
);
}
);
width = 449;
}
);
unicode = 58;
}
{
glyphname = equal;
layers = (
{
layerId = m001;
shapes = (
{
closed = 1;
nodes = (
(1084,554,l),
(1084,369,l),
(86,369,l),
(86,554,l)
);
},
{
closed = 1;
nodes = (
(1084,1035,l),
(1084,850,l),
(86,850,l),
(86,1035,l)
);
}
);
width = 1170;
}
);
unicode = 61;
}
{
glyphname = greater;
layers = (
{
layerId = m001;
shapes = (
{
closed = 1;
nodes = (
(878,704,l),
(96,1041,l),
(96,1240,l),
(1074,802,l),
(1074,600,l),
(96,160,l),
(96,368,l)
);
}
);
width = 1170;
}
);
unicode = 62;
}
{
glyphname = at;
layers = (
{
layerId = m001;
shapes = (
{
closed = 1;
nodes = (
(61,674,o),
(195,1018,o),
(442,1269,o),
(783,1405,o),
(989,1405,qs),
(1234,1405,o),
(1606,1212,o),
(1816,869,o),
(1816,644,qs),
(1816,466,o),
(1712,204,o),
(1522,59,o),
(1394,59,qs),
(1303,59,o),
(1172,147,o),
(1149,223,q),
(1109,145,o),
(961,60,o),
(864,60,qs),
(749,60,o),
(577,171,o),
(481,372,o),
(481,640,o),
(577,841,o),
(750,953,o),
(865,953,qs),
(960,953,o),
(1105,864,o),
(1142,784,q),
(1142,932,l),
(1337,932,l),
(1337,360,ls),
(1337,224,o),
(1510,224,o),
(1620,453,o),
(1620,819,o),
(1464,1085,o),
(1179,1230,o),
(983,1230,qs),
(769,1230,o),
(442,1037,o),
(258,697,o),
(258,474,qs),
(258,266,o),
(421,-39,o),
(721,-204,o),
(927,-204,qs),
(1085,-204,o),
(1224,-165,q),
(1224,-340,l),
(1077,-378,o),
(927,-378,qs),
(663,-378,o),
(274,-171,o),
(61,208,o),
(61,465,qs)
);
},
{
closed = 1;
nodes = (
(1023,786,o),
(810,786,o),
(691,639,o),
(691,374,o),
(810,227,o),
(1023,227,o),
(1141,374,o),
(1141,639,o)
);
}
);
width = 1877;
}
);
unicode = 64;
}
{
glyphname = C;
layers = (
{
layerId = m001;
shapes = (
{
attr = {
strokeHeight = 198;
strokeWidth = 212;
};
closed = 0;
nodes = (
(1209,948,l),
(1173,1126,o),
(1045,1328,o),
(738,1328,cs),
(402,1328,o),
(171,1104,o),
(171,700,cs),
(171,278,o),
(411,76,o),
(738,76,cs),
(1006,76,o),
(1159,226,o),
(1209,439,cs)
);
}
);
width = 1396;
},
{
associatedMasterId = m001;
layerId = "8F3B0821-B815-40A0-BEE4-0556A3F32E09";
name = Stroke;
shapes = (
{
attr = {
strokeHeight = 198;
strokeWidth = 212;
};
closed = 0;
nodes = (
(1209,948,l),
(1173,1126,o),
(1045,1328,o),
(738,1328,cs),
(402,1328,o),
(171,1104,o),
(171,700,cs),
(171,278,o),
(411,76,o),
(738,76,cs),
(1006,76,o),
(1159,226,o),
(1209,439,cs)
);
}
);
visible = 1;
width = 1396;
},
{
associatedMasterId = m001;
layerId = "E5FA7338-4877-41C9-B9D7-1A9233385C90";
name = Background;
shapes = (
{
closed = 1;
nodes = (
(222,161,o),
(516,-23,o),
(715,-23,qs),
(969,-23,o),
(1290,231,o),
(1333,470,q),
(1105,470,l),
(1044,167,o),
(715,167,qs),
(584,167,o),
(395,299,o),
(293,539,o),
(293,700,qs),
(293,859,o),
(395,1099,o),
(584,1233,o),
(715,1233,qs),
(863,1233,o),
(1058,1085,o),
(1086,945,q),
(1313,945,l),
(1270,1171,o),
(954,1423,o),
(715,1423,qs),
(516,1423,o),
(222,1240,o),
(61,914,o),
(61,486,o)
);
}
);
visible = 1;
width = 1396;
}
);
unicode = 67;
}
{
glyphname = E;
layers = (
{
layerId = m001;
shapes = (
{
attr = {
lineCapEnd = "2";
strokeHeight = 198;
strokeWidth = 212;
};
closed = 0;
nodes = (
(1033,1299,l),
(225,1299,ls),
(221,1299,o),
(219,1297,o),
(219,1293,cs),
(219,810,ls),
(219,744,o),
(255,698,o),
(334,698,cs),
(921,699,l)
);
},
{
attr = {
lineCapStart = "2";
strokeHeight = 198;
strokeWidth = 212;
};
closed = 0;
nodes = (
(921,697,l),
(334,698,ls),
(255,698,o),
(219,652,o),
(219,586,cs),
(219,103,ls),
(219,99,o),
(221,97,o),
(225,97,cs),
(1033,97,l)
);
}
);
width = 1138;
},
{
associatedMasterId = m001;
layerId = "72ED7A89-CD95-4C57-87FF-CD162616C257";
name = Stroke;
shapes = (
{
attr = {
lineCapEnd = "2";
strokeHeight = 198;
strokeWidth = 212;
};
closed = 0;
nodes = (
(1033,1299,l),
(225,1299,ls),
(221,1299,o),
(219,1297,o),
(219,1293,cs),
(219,810,ls),
(219,744,o),
(255,698,o),
(334,698,cs),
(921,699,l)
);
},
{
attr = {
lineCapStart = 2;
strokeHeight = 198;
strokeWidth = 212;
};
closed = 0;
nodes = (
(921,697,l),
(334,698,ls),
(255,698,o),
(219,652,o),
(219,586,cs),
(219,103,ls),
(219,99,o),
(221,97,o),
(225,97,cs),
(1033,97,l)
);
}
);
visible = 1;
width = 1138;
},
{
associatedMasterId = m001;
layerId = "BAB87526-34EA-4CBA-969A-D596481603E7";
name = Background;
shapes = (
{
closed = 1;
nodes = (
(1054,0,l),
(1054,195,l),
(336,195,l),
(336,616,l),
(906,616,l),
(906,808,l),
(336,808,l),
(336,1205,l),
(1038,1205,l),
(1038,1400,l),
(114,1400,l),
(114,0,l)
);
}
);
visible = 1;
width = 1138;
}
);
unicode = 69;
}
{
glyphname = G;
layers = (
{
layerId = m001;
shapes = (
{
attr = {
lineCapEnd = "4";
strokeHeight = 198;
strokeWidth = 212;
};
closed = 0;
nodes = (
(1206,1000,l),
(1163,1123,o),
(1032,1328,o),
(718,1328,cs),
(382,1328,o),
(171,1104,o),
(171,700,cs),
(171,278,o),
(411,76,o),
(738,76,cs),
(1009,76,o),
(1219,253,o),
(1219,507,cs),
(1219,607,ls),
(1219,646,o),
(1198,667,o),
(1159,667,cs),
(630,667,l)
);
}
);
width = 1399;
},
{
associatedMasterId = m001;
layerId = "0902C52D-8830-479F-9C7B-74CCE1E3412D";
name = Stroke;
shapes = (
{
attr = {
lineCapEnd = "4";
strokeHeight = 198;
strokeWidth = 212;
};
closed = 0;
nodes = (
(1206,1000,l),
(1163,1123,o),
(1032,1328,o),
(718,1328,cs),
(382,1328,o),
(171,1104,o),
(171,700,cs),
(171,278,o),
(411,76,o),
(738,76,cs),
(1009,76,o),
(1219,253,o),
(1219,507,cs),
(1219,607,ls),
(1219,646,o),
(1198,667,o),
(1159,667,cs),
(630,667,l)
);
}
);
width = 1399;
},
{
associatedMasterId = m001;
layerId = "C2632FCC-9AC3-4205-8DCE-08742E9C0545";
name = Background;
shapes = (
{
closed = 1;
nodes = (
(226,156,o),
(532,-23,o),
(742,-23,qs),
(1093,-23,o),
(1314,168,q),
(1314,739,l),
(690,739,l),
(690,552,l),
(1096,552,l),
(1096,261,l),
(1034,215,o),
(861,167,o),
(763,167,qs),
(536,167,o),
(289,454,o),
(289,700,qs),
(289,864,o),
(394,1103,o),
(580,1233,o),
(701,1233,qs),
(990,1233,o),
(1066,1001,q),
(1304,1001,l),
(1252,1206,o),
(938,1423,o),
(696,1423,qs),
(508,1423,o),
(221,1244,o),
(61,920,o),
(61,480,o)
);
}
);
visible = 1;
width = 1399;
}
);
unicode = 71;
}
{
glyphname = H;
layers = (
{
layerId = m001;
shapes = (
{
attr = {
lineCapStart = "2";
strokeHeight = 180;
strokeWidth = 196;
};
closed = 0;
nodes = (
(1167,1400,ls),
(1167,3,ls)
);
},
{
attr = {
lineCapEnd = "2";
lineCapStart = "2";
strokeHeight = 180;
strokeWidth = 196;
};
closed = 0;
nodes = (
(1166,1400,ls),
(1166,838,ls),
(1166,751,o),
(1108,699,o),
(1021,699,cs),
(599,698,l),
(366,698,ls),
(279,698,o),
(221,646,o),
(221,559,cs),
(221,0,ls)
);
},
{
attr = {
lineCapEnd = "2";
strokeHeight = 180;
strokeWidth = 196;
};
closed = 0;
nodes = (
(220,1400,ls),
(220,0,ls)
);
}
);
width = 1382;
},
{
associatedMasterId = m001;
layerId = "BBCB0282-603B-4EEA-85C7-7C5C176617A8";
name = Stroke;
shapes = (
{
attr = {
lineCapStart = "2";
strokeHeight = 180;
strokeWidth = 196;
};
closed = 0;
nodes = (
(1167,1400,ls),
(1167,3,ls)
);
},
{
attr = {
lineCapEnd = 2;
lineCapStart = "2";
strokeHeight = 180;
strokeWidth = 196;
};
closed = 0;
nodes = (
(1166,1400,ls),
(1166,838,ls),
(1166,751,o),
(1108,699,o),
(1021,699,cs),
(599,698,l),
(366,698,ls),
(279,698,o),
(221,646,o),
(221,559,cs),
(221,0,ls)
);
},
{
attr = {
lineCapEnd = 2;
strokeHeight = 180;
strokeWidth = 196;
};
closed = 0;
nodes = (
(220,1400,ls),
(220,0,ls)
);
}
);
visible = 1;
width = 1382;
},
{
associatedMasterId = m001;
layerId = "6B8B685B-19B1-4D0B-84FF-33B93271518C";
name = Background;
shapes = (
{
closed = 1;
nodes = (
(337,0,l),
(337,602,l),
(1044,602,l),
(1044,0,l),
(1267,0,l),
(1267,1400,l),
(1044,1400,l),
(1044,802,l),
(337,802,l),
(337,1400,l),
(114,1400,l),
(114,0,l)
);
}
);
visible = 1;
width = 1382;
}
);
unicode = 72;
}
{
glyphname = I;
layers = (
{
layerId = m001;
shapes = (
{
attr = {
strokeHeight = 198;
strokeWidth = 212;
};
closed = 0;
nodes = (
(226,1400,ls),
(226,0,ls)
);
}
);
width = 452;
},
{
associatedMasterId = m001;
layerId = "618A25E5-B0C6-43C9-A2D1-4BD37698EBAC";
name = Stroke;
shapes = (
{
attr = {
strokeHeight = 198;
strokeWidth = 212;
};
closed = 0;
nodes = (
(226,1400,ls),
(226,0,ls)
);
}
);
visible = 1;
width = 452;
},
{
associatedMasterId = m001;
layerId = "42620B7A-A351-441B-B8C7-020A7BA9D5EF";
name = Background;
shapes = (
{
closed = 1;
nodes = (
(337,0,l),
(337,1400,l),
(114,1400,l),
(114,0,l)
);
}
);
visible = 1;
width = 452;
}
);
unicode = 73;
}
{
glyphname = J;
layers = (
{
layerId = m001;
shapes = (
{
attr = {
strokeHeight = 198;
strokeWidth = 212;
};
closed = 0;
nodes = (
(868,1400,ls),
(868,460,ls),
(868,201,o),
(718,75,o),
(514,75,cs),
(318,75,o),
(219,171,o),
(138,369,cs)
);
}
);
width = 1082;
},
{
associatedMasterId = m001;
layerId = "6BD8CF17-160D-49E9-BCC5-BCB414BED02D";
name = Stroke;
shapes = (
{
attr = {
strokeHeight = 198;
strokeWidth = 212;
};
closed = 0;
nodes = (
(868,1400,ls),
(868,460,ls),
(868,201,o),
(718,75,o),
(514,75,cs),
(318,75,o),
(219,171,o),
(138,369,cs)
);
}
);
visible = 1;
width = 1082;
},
{
associatedMasterId = m001;
layerId = "CD3990ED-1DAF-457C-AF21-7B5EDA3964AB";
name = Background;
shapes = (
{
closed = 1;
nodes = (
(629,170,o),
(507,170,qs),
(404,170,o),
(289,277,o),
(270,408,q),
(43,408,l),
(73,183,o),
(306,-23,o),
(508,-23,qs),
(737,-23,o),
(979,232,o),
(979,469,qs),
(979,1400,l),
(756,1400,l),
(756,466,ls),
(756,321,o)
);
}
);
visible = 1;
width = 1082;
}
);
unicode = 74;
}
{
glyphname = L;
layers = (
{
layerId = m001;
shapes = (
{
closed = 1;
nodes = (
(334.016,110,l),
(333.992,110,l)
);
},
{
closed = 1;
nodes = (
(334,107,l),
(334,107,l)
);
},
{
attr = {
strokeHeight = 198;
strokeWidth = 212;
};
closed = 0;
nodes = (
(219,1400,l),
(219,105,ls),
(219,101,o),
(221,99,o),
(225,99,cs),
(1043,99,ls)
);
}
);
width = 1096;
},
{
associatedMasterId = m001;
layerId = "34989FD4-4215-40C2-902B-A06675B4841D";
name = Stroke;
shapes = (
{
closed = 1;
nodes = (
(334,107,l),
(334,107,l)
);
},
{
attr = {
strokeHeight = 198;
strokeWidth = 212;
};
closed = 0;
nodes = (
(219,1400,l),
(219,105,ls),
(219,101,o),
(221,99,o),
(225,99,cs),
(1043,99,ls)
);
}
);
visible = 1;
width = 1096;
},
{
associatedMasterId = m001;
layerId = "2457D8EB-989D-4FA3-9CF6-A52CA01E1CAD";
name = Background;
shapes = (
{
closed = 1;
nodes = (
(334.016,110,l),
(333.992,110,l)
);
},
{
attr = {
lineCapEnd = "2";
lineCapStart = "2";
strokeHeight = 198;
strokeWidth = 212;
};
closed = 0;
nodes = (
(219,1293,l),
(219,108,ls),
(219,104,o),
(221,102,o),
(225,102,cs),
(630,102,ls)
);
},
{
closed = 1;
nodes = (
(1043,0,l),
(1043,199,l),
(337,199,l),
(337,1400,l),
(114,1400,l),
(114,0,l)
);
}
);
visible = 1;
width = 1096;
}
);
unicode = 76;
}
{
glyphname = M;
layers = (
{
layerId = m001;
shapes = (
{
attr = {
lineCapEnd = "2";
lineCapStart = "4";
strokeHeight = 198;
strokeWidth = 212;
};
closed = 0;
nodes = (
(1433,0,l),
(1433,1296,ls),
(1433,1312,o),
(1424,1321,o),
(1408,1321,cs),
(1377,1321,ls),
(1364,1321,o),
(1354,1315,o),
(1347,1304,cs),
(866,504,ls),
(817,422,o),
(826,327,o),
(826,244,cs),
(826,153,l)
);
},
{
attr = {
lineCapEnd = "4";
lineCapStart = "2";
strokeHeight = 198;
strokeWidth = 212;
};
closed = 0;
nodes = (
(825,153,l),
(825,244,ls),
(825,327,o),
(830,430,o),
(785,504,cs),
(299,1304,ls),
(292,1315,o),
(282,1321,o),
(269,1321,cs),
(247,1321,ls),
(231,1321,o),
(222,1312,o),
(222,1296,cs),
(222,0,l)
);
}
);
width = 1655;
},
{
associatedMasterId = m001;
layerId = "88948991-C397-46D8-9AE4-DD044B0A27B9";
name = Stroke;
shapes = (
{
attr = {
lineCapEnd = "2";
lineCapStart = "4";
strokeHeight = 198;
strokeWidth = 212;
};
closed = 0;
nodes = (
(1433,0,l),
(1433,1296,ls),
(1433,1312,o),
(1424,1321,o),
(1408,1321,cs),
(1377,1321,ls),
(1364,1321,o),
(1354,1315,o),
(1347,1304,cs),
(866,504,ls),
(817,422,o),
(826,327,o),
(826,244,cs),
(826,153,l)
);
},
{
attr = {
lineCapEnd = "4";
lineCapStart = "2";
strokeHeight = 198;
strokeWidth = 212;
};
closed = 0;
nodes = (
(825,153,l),
(825,244,ls),
(825,327,o),
(830,430,o),
(785,504,cs),
(299,1304,ls),
(292,1315,o),
(282,1321,o),
(269,1321,cs),
(247,1321,ls),
(231,1321,o),
(222,1312,o),
(222,1296,cs),
(222,0,l)
);
}
);
visible = 1;
width = 1655;
},
{
associatedMasterId = m001;
layerId = "1AA74B76-DC85-43C5-ACDC-8FE07D2A5C2A";
name = Background;
shapes = (
{
closed = 1;
nodes = (
(331,0,l),
(331,1089,l),
(725,336,l),
(928,336,l),
(1324,1097,l),
(1324,0,l),
(1541,0,l),
(1541,1400,l),
(1276,1400,l),
(829,540,l),
(381,1400,l),
(114,1400,l),
(114,0,l)
);
}
);
visible = 1;
width = 1655;
}
);
unicode = 77;
}
{
glyphname = P;
layers = (
{
layerId = m001;
shapes = (
{
attr = {
lineCapStart = "2";
strokeHeight = 198;
strokeWidth = 212;
};
closed = 0;
nodes = (
(216,566,l),
(648,566,ls),
(875,566,o),
(1055,727,o),
(1055,946,cs),
(1055,1139,o),
(909,1299,o),
(648,1299,cs),
(228,1299,ls),
(224,1299,o),
(222,1297,o),
(222,1293,cs),
(222,0,ls)
);
}
);
width = 1220;
},
{
associatedMasterId = m001;
layerId = "D28AB649-584F-4B7D-871F-DBF4F33032E6";
name = Stroke;
shapes = (
{
attr = {
lineCapStart = "2";
strokeHeight = 198;
strokeWidth = 212;
};
closed = 0;
nodes = (
(216,566,l),
(648,566,ls),
(875,566,o),
(1055,727,o),
(1055,946,cs),
(1055,1139,o),
(909,1299,o),
(648,1299,cs),
(228,1299,ls),
(224,1299,o),
(222,1297,o),
(222,1293,cs),
(222,0,ls)
);
}
);
visible = 1;
width = 1220;
},
{
associatedMasterId = m001;
layerId = "AE34BDDD-8F8A-41A5-8594-E95E7F9D6A1F";
name = Background;
shapes = (
{
closed = 1;
nodes = (
(337,0,l),
(337,481,l),
(660,481,ls),
(902,481,o),
(1162,721,o),
(1162,1160,o),
(902,1400,o),
(660,1400,qs),
(114,1400,l),
(114,0,l)
);
},
{
closed = 1;
nodes = (
(637,676,qs),
(337,676,l),
(337,1205,l),
(637,1205,ls),
(935,1205,o),
(935,676,o)
);
}
);
visible = 1;
width = 1220;
}
);
unicode = 80;
}
{
glyphname = R;
layers = (
{
layerId = m001;
shapes = (
{
attr = {
lineCapStart = "2";
strokeHeight = 198;
strokeWidth = 212;
};
closed = 0;
nodes = (
(480,861,l),
(616,684,o),
(688,628,o),
(816,628,cs),
(954,628,o),
(1089,725,o),
(1089,941,cs),
(1089,1143,o),
(910,1299,o),
(620,1299,cs),
(228,1299,ls),
(224,1299,o),
(222,1297,o),
(222,1293,cs),
(222,0,ls)
);
},
{
attr = {
lineCapEnd = "4";
lineCapStart = "2";
strokeHeight = 198;
strokeWidth = 212;
};
closed = 0;
nodes = (
(480,861,l),
(1113,0,l)
);
}
);
width = 1249;
},
{
associatedMasterId = m001;
layerId = "AC7FDCD3-098D-4F61-B454-5E5C0415D727";
name = Stroke;
shapes = (
{
attr = {
lineCapStart = "2";
strokeHeight = 198;
strokeWidth = 212;
};
closed = 0;
nodes = (
(480,861,l),
(616,684,o),
(688,628,o),
(816,628,cs),
(954,628,o),
(1089,725,o),
(1089,941,cs),
(1089,1143,o),
(910,1299,o),
(620,1299,cs),
(228,1299,ls),
(224,1299,o),
(222,1297,o),
(222,1293,cs),
(222,0,ls)
);
},
{
attr = {
lineCapEnd = 4;
lineCapStart = "2";
strokeHeight = 198;
strokeWidth = 212;
};
closed = 0;
nodes = (
(480,861,l),
(1113,0,l)
);
}
);
visible = 1;
width = 1249;
},
{
anchors = (
{
name = top;
pos = (630,1440);
}
);
associatedMasterId = m001;
layerId = "9143878C-D128-4C94-91F0-8EBF37428AF4";
name = Background;
shapes = (
{
closed = 1;
nodes = (
(336,0,l),
(336,519,l),
(671,519,ls),
(675,519,o),
(678,519,q),
(967,0,l),
(1214,0,l),
(896,552,l),
(1033,597,o),
(1177,806,o),
(1177,962,qs),
(1177,1171,o),
(914,1400,o),
(671,1400,qs),
(114,1400,l),
(114,0,l)
);
},
{
closed = 1;
nodes = (
(649,712,qs),
(336,712,l),
(336,1207,l),
(649,1207,ls),
(950,1207,o),
(950,961,qs),
(950,712,o)
);
}
);
visible = 1;
width = 1249;
}
);
unicode = 82;
}
{
glyphname = T;
layers = (
{
layerId = m001;
shapes = (
{
attr = {
lineCapEnd = "2";
strokeHeight = 198;
strokeWidth = 212;
};
closed = 0;
nodes = (
(52,1318,l),
(1197,1318,l)
);
},
{
attr = {
lineCapStart = "2";
strokeHeight = 198;
strokeWidth = 212;
};
closed = 0;
nodes = (
(1197,1317,l),
(789,1317,ls),
(672,1317,o),
(609,1254,o),
(609,1137,cs),
(609,0,l)
);
}
);
width = 1251;
},
{
associatedMasterId = m001;
layerId = "E2DF9152-FD21-43F4-AFD1-1644C38F1AED";
name = Stroke;
shapes = (
{
attr = {
lineCapEnd = 2;
strokeHeight = 198;
strokeWidth = 212;
};
closed = 0;
nodes = (
(52,1318,l),
(1197,1318,l)
);
},
{
attr = {
lineCapStart = 2;
strokeHeight = 198;
strokeWidth = 212;
};
closed = 0;
nodes = (
(1197,1317,l),
(789,1317,ls),
(672,1317,o),
(609,1254,o),
(609,1137,cs),
(609,0,l)
);
}
);
visible = 1;
width = 1251;
},
{
associatedMasterId = m001;
layerId = "64324C40-54DB-46FA-9091-90AA55F4BE16";
name = Background;
shapes = (
{
closed = 1;
nodes = (
(737,0,l),
(737,1201,l),
(1197,1201,l),
(1197,1400,l),
(54,1400,l),
(54,1201,l),
(514,1201,l),
(514,0,l)
);
}
);
visible = 1;
width = 1251;
}
);
unicode = 84;
}
{
glyphname = U;
layers = (
{
layerId = m001;
shapes = (
{
attr = {
strokeHeight = 198;
strokeWidth = 212;
};
closed = 0;
nodes = (
(1143,1400,l),
(1143,613,ls),
(1143,221,o),
(977,75,o),
(675,75,cs),
(402,75,o),
(208,224,o),
(208,613,cs),
(208,1400,l)
);
}
);
width = 1351;
},
{
associatedMasterId = m001;
layerId = "9FF8660B-503D-45DD-AC7E-E1DA00894469";
name = Stroke;
shapes = (
{
attr = {
strokeHeight = 198;
strokeWidth = 212;
};
closed = 0;
nodes = (
(1143,1400,l),
(1143,613,ls),
(1143,221,o),
(977,75,o),
(675,75,cs),
(402,75,o),
(208,224,o),
(208,613,cs),
(208,1400,l)
);
}
);
visible = 1;
width = 1351;
},
{
anchors = (
{
name = bottom;
pos = (677,-50);
},
{
name = ogonek;
pos = (836,0);
},
{
name = top;
pos = (677,1440);
}
);
associatedMasterId = m001;
layerId = "0AD39484-04A4-431C-B701-4FF195AEDF5B";
name = Background;
shapes = (
{
closed = 1;
nodes = (
(237,120,o),
(492,-23,o),
(860,-23,o),
(1115,120,o),
(1248,378,o),
(1248,550,qs),
(1248,1400,l),
(1025,1400,l),
(1025,553,ls),
(1025,375,o),
(840,170,o),
(511,170,o),
(326,375,o),
(326,553,qs),
(326,1400,l),
(103,1400,l),
(103,550,ls),
(103,378,o)
);
}
);
visible = 1;
width = 1351;
}
);
unicode = 85;
}
{
glyphname = W;
layers = (
{
layerId = m001;
shapes = (
{
attr = {
lineCapEnd = "2";
lineCapStart = "4";
strokeHeight = 198;
strokeWidth = 212;
};
closed = 0;
nodes = (
(132,1401,l),
(489,120,ls),
(493,106,o),
(502,98,o),
(518,98,cs),
(565,98,ls),
(580,98,o),
(590,105,o),
(595,118,cs),
(895,907,ls),
(924,986,o),
(935,1044,o),
(935,1127,cs),
(935,1268,l)
);
},
{
attr = {
lineCapEnd = "4";
lineCapStart = "2";
strokeHeight = 198;
strokeWidth = 212;
};
closed = 0;
nodes = (
(936,1268,l),
(936,1127,ls),
(936,1044,o),
(947,986,o),
(976,907,cs),
(1276,118,ls),
(1282,105,o),
(1291,98,o),
(1307,98,cs),
(1353,98,ls),
(1370,98,o),
(1379,106,o),
(1383,120,cs),
(1739,1401,l)
);
}
);
width = 1874;
},
{
associatedMasterId = m001;
layerId = "24F317B4-ED96-4EB3-8E04-BD1CD7F8B858";
name = Stroke;
shapes = (
{
attr = {
lineCapEnd = 2;
lineCapStart = "4";
strokeHeight = 198;
strokeWidth = 212;
};
closed = 0;
nodes = (
(132,1401,l),
(489,120,ls),
(493,106,o),
(502,98,o),
(518,98,cs),
(565,98,ls),
(580,98,o),
(590,105,o),
(595,118,cs),
(895,907,ls),
(924,986,o),
(935,1044,o),
(935,1127,cs),
(935,1268,l)
);
},
{
attr = {
lineCapEnd = 4;
lineCapStart = 2;
strokeHeight = 198;
strokeWidth = 212;
};
closed = 0;
nodes = (
(936,1268,l),
(936,1127,ls),
(936,1044,o),
(947,986,o),
(976,907,cs),
(1276,118,ls),
(1282,105,o),
(1291,98,o),
(1307,98,cs),
(1353,98,ls),
(1370,98,o),
(1379,106,o),
(1383,120,cs),
(1739,1401,l)
);
}
);
visible = 1;
width = 1874;
},
{
associatedMasterId = m001;
layerId = "D77EE78E-4818-40E1-9F46-F804CB76EAE9";
name = Background;
shapes = (
{
closed = 1;
nodes = (
(1071,1380,l),
(806,1380,l),
(524,204,l),
(264,1400,l),
(24,1400,l),
(366,0,l),
(667,0,l),
(936,1115,l),
(1206,0,l),
(1508,0,l),
(1851,1400,l),
(1615,1400,l),
(1355,201,l)
);
}
);
visible = 1;
width = 1874;
}
);
unicode = 87;
}
{
glyphname = Z;
layers = (
{
layerId = m001;
shapes = (
{
attr = {
strokeHeight = 198;
strokeWidth = 212;
};
closed = 0;
nodes = (
(1131,96,l),
(220,96,ls),
(170,96,o),
(154,129,o),
(185,168,cs),
(1024,1232,ls),
(1055,1271,o),
(1037,1304,o),
(988,1304,cs),
(105,1304,l)
);
}
);
width = 1217;
},
{
associatedMasterId = m001;
layerId = "8A17241B-EAED-4C6A-A9B7-9D1BF757B18D";
name = Stroke;
shapes = (
{
attr = {
strokeHeight = 198;
strokeWidth = 212;
};
closed = 0;
nodes = (
(1131,96,l),
(220,96,ls),
(170,96,o),
(154,129,o),
(185,168,cs),
(1024,1232,ls),
(1055,1271,o),
(1037,1304,o),
(988,1304,cs),
(105,1304,l)
);
}
);
visible = 1;
width = 1217;
},
{
associatedMasterId = m001;
layerId = "99BD2904-9476-4E32-8751-2470209227C7";
name = Background;
shapes = (
{
closed = 1;
nodes = (
(1134,0,l),
(1134,196,l),
(340,196,l),
(1120,1209,l),
(1120,1400,l),
(107,1400,l),
(107,1204,l),
(863,1204,l),
(84,191,l),
(84,0,l)
);
}
);
visible = 1;
width = 1217;
}
);
unicode = 90;
}
{
glyphname = asciicircum;
layers = (
{
layerId = m001;
shapes = (
{
closed = 1;
nodes = (
(292,718,l),
(78,718,l),
(480,1400,l),
(691,1400,l),
(1092,718,l),
(877,718,l),
(585,1224,l)
);
}
);
width = 1170;
}
);
unicode = 94;
}
{
glyphname = l;
layers = (
{
layerId = m001;
shapes = (
{
attr = {
strokeHeight = 180;
strokeWidth = 196;
};
closed = 0;
nodes = (
(206,1461,l),
(206,0,ls)
);
}
);
width = 411;
},
{
associatedMasterId = m001;
layerId = "FC7EB2F5-1ECE-40BA-A840-A8BE8FA8C5F6";
name = Stroke;
shapes = (
{
attr = {
strokeHeight = 180;
strokeWidth = 196;
};
closed = 0;
nodes = (
(206,1461,l),
(206,0,ls)
);
}
);
visible = 1;
width = 411;
},
{
associatedMasterId = m001;
layerId = "5B50C656-8A8A-43ED-80BE-6CB17600D795";
name = Background;
shapes = (
{
closed = 1;
nodes = (
(312,1460,l),
(312,0,l),
(99,0,l),
(99,1460,l)
);
}
);
visible = 1;
width = 411;
}
);
unicode = 108;
}
{
glyphname = m;
layers = (
{
layerId = m001;
shapes = (
{
attr = {
lineCapEnd = "2";
strokeHeight = 180;
strokeWidth = 196;
};
closed = 0;
nodes = (
(195,0,l),
(195,543,ls),
(195,798,o),
(306,945,o),
(512,945,cs),
(718,945,o),
(834,798,o),
(834,543,cs),
(834,40,l)
);
},
{
attr = {
lineCapStart = "2";
strokeHeight = 180;
strokeWidth = 196;
};
closed = 0;
nodes = (
(835,40,l),
(835,543,ls),
(835,798,o),
(951,945,o),
(1157,945,cs),
(1363,945,o),
(1474,798,o),
(1474,543,cs),
(1474,0,l)
);
}
);
width = 1664;
},
{
associatedMasterId = m001;
layerId = "3CBCECB7-B5C1-446E-9651-C7E4B3D83306";
name = Stroke;
shapes = (
{
attr = {
lineCapEnd = 2;
strokeHeight = 180;
strokeWidth = 196;
};
closed = 0;
nodes = (
(195,0,l),
(195,543,ls),
(195,798,o),
(306,945,o),
(512,945,cs),
(718,945,o),
(834,798,o),
(834,543,cs),
(834,40,l)
);
},
{
attr = {
lineCapStart = 2;
strokeHeight = 180;
strokeWidth = 196;
};
closed = 0;
nodes = (
(835,40,l),
(835,543,ls),
(835,798,o),
(951,945,o),
(1157,945,cs),
(1363,945,o),
(1474,798,o),
(1474,543,cs),
(1474,0,l)
);
}
);
visible = 1;
width = 1664;
},
{
associatedMasterId = m001;
layerId = "0795F551-977C-467E-A420-FCB0DBA34224";
name = Background;
shapes = (
{
closed = 1;
nodes = (
(305,1014,l),
(305,876,l),
(352,951,o),
(509,1037,o),
(603,1037,qs),
(716,1037,o),
(867,944,o),
(907,843,q),
(960,932,o),
(1130,1037,o),
(1232,1037,qs),
(1570,1037,o),
(1570,618,qs),
(1570,0,l),
(1358,0,l),
(1358,589,ls),
(1358,729,o),
(1271,852,o),
(1174,852,qs),
(1071,852,o),
(940,704,o),
(940,585,qs),
(940,0,l),
(729,0,l),
(729,589,ls),
(729,729,o),
(642,852,o),
(545,852,qs),
(442,852,o),
(312,704,o),
(312,585,qs),
(312,0,l),
(99,0,l),
(99,1014,l)
);
}
);
visible = 1;
width = 1664;
}
);
unicode = 109;
}
{
glyphname = n;
layers = (
{
layerId = m001;
shapes = (
{
attr = {
strokeHeight = 180;
strokeWidth = 196;
};
closed = 0;
nodes = (
(195,0,l),
(195,543,ls),
(195,798,o),
(341,945,o),
(547,945,cs),
(753,945,o),
(899,798,o),
(899,543,cs),
(899,0,l)
);
}
);
width = 1094;
},
{
associatedMasterId = m001;
layerId = "07863852-16E3-4EB4-8F81-4B09E826D4D5";
name = Stroke;
shapes = (
{
attr = {
strokeHeight = 180;
strokeWidth = 196;
};
closed = 0;
nodes = (
(195,0,l),
(195,523,ls),
(195,778,o),
(341,945,o),
(547,945,cs),
(753,945,o),
(899,778,o),
(899,523,cs),
(899,0,l)
);
}
);
visible = 1;
width = 1094;
},
{
associatedMasterId = m001;
layerId = "AEF11F33-FC6C-4339-B473-85462D8C966A";
name = Background;
shapes = (
{
closed = 1;
nodes = (
(305,1014,l),
(305,868,l),
(352,943,o),
(521,1037,o),
(632,1037,qs),
(999,1037,o),
(999,605,qs),
(999,0,l),
(787,0,l),
(787,581,ls),
(787,722,o),
(687,852,o),
(462,852,o),
(312,700,o),
(312,577,qs),
(312,0,l),
(99,0,l),
(99,1014,l)
);
}
);
visible = 1;
width = 1094;
}
);
unicode = 110;
}
{
glyphname = r;
layers = (
{
layerId = m001;
shapes = (
{
closed = 1;
nodes = (
(294,393,ls),
(294,670,o),
(414,852,o),
(686,853,c),
(686,1033,l),
(288,1032,o),
(212,743,o),
(166,393,cs),
(129,112,ls),
(122,58,o),
(142,-10,o),
(196,-10,cs),
(250,-10,o),
(294,34,o),
(294,88,cs)
);
},
{
closed = 1;
nodes = (
(294,1014,l),
(98,1014,l),
(98,93,ls),
(98,29,o),
(142,-10,o),
(196,-10,cs),
(250,-10,o),
(294,34,o),
(294,88,cs)
);
}
);
width = 692;
},
{
associatedMasterId = m001;
layerId = "EE10DF53-176C-400A-84B3-E6DC8B68247D";
name = Stroke;
shapes = (
{
attr = {
lineCapEnd = "2";
strokeHeight = 180;
strokeWidth = 196;
};
closed = 0;
nodes = (
(686,943,l),
(349,942,o),
(196,709,o),
(196,393,cs),
(196,64,l)
);
},
{
attr = {
lineCapEnd = "2";
strokeHeight = 180;
strokeWidth = 196;
};
closed = 0;
nodes = (
(196,1014,l),
(196,0,l)
);
}
);
visible = 1;
width = 692;
},
{
associatedMasterId = m001;
layerId = "7F579F52-02BE-4A2C-A75C-D85FD8307349";
name = Background;
shapes = (
{
closed = 1;
nodes = (
(305,1014,l),
(305,859,l),
(349,949,o),
(480,1030,o),
(582,1030,qs),
(615,1030,o),
(669,1021,q),
(669,820,l),
(646,825,o),
(590,829,o),
(567,829,qs),
(312,829,o),
(312,512,qs),
(312,0,l),
(99,0,l),
(99,1014,l)
);
}
);
visible = 1;
width = 692;
}
);
unicode = 114;
}
{
glyphname = t;
layers = (
{
layerId = m001;
shapes = (
{
attr = {
strokeHeight = 180;
strokeWidth = 196;
};
closed = 0;
nodes = (
(692,71,l),
(572,71,ls),
(393,71,o),
(324,185,o),
(324,320,cs),
(324,768,ls),
(324,855,o),
(378,922,o),
(469,922,cs)
);
},
{
attr = {
strokeHeight = 180;
strokeWidth = 196;
};
closed = 0;
nodes = (
(324,1311,ls),
(324,1076,ls),
(324,991,o),
(266,922,o),
(179,922,cs)
);
},
{
attr = {
lineCapEnd = "2";
lineCapStart = "2";
strokeHeight = 180;
strokeWidth = 196;
};
closed = 0;
nodes = (
(27,922,l),
(682,922,ls)
);
}
);
width = 717;
},
{
associatedMasterId = m001;
layerId = "7091E9C5-C93E-45E9-9AE5-A57A5DB95101";
name = Stroke;
shapes = (
{
attr = {
strokeHeight = 180;
strokeWidth = 196;
};
closed = 0;
nodes = (
(682,71,l),
(572,71,ls),
(393,71,o),
(324,185,o),
(324,320,cs),
(324,768,ls),
(324,855,o),
(378,922,o),
(469,922,cs)
);
},
{
attr = {
strokeHeight = 180;
strokeWidth = 196;
};
closed = 0;
nodes = (
(324,1311,ls),
(324,1076,ls),
(324,991,o),
(266,922,o),
(179,922,cs)
);
},
{
attr = {
lineCapEnd = "2";
lineCapStart = "2";
strokeHeight = 180;
strokeWidth = 196;
};
closed = 0;
nodes = (
(16,922,l),
(682,922,ls)
);
}
);
visible = 1;
width = 717;
},
{
associatedMasterId = m001;
layerId = "15A456FC-1D5D-4343-A545-F152AA00754E";
name = Background;
shapes = (
{
closed = 1;
nodes = (
(215,843,l),
(25,843,l),
(25,1014,l),
(215,1014,l),
(215,1310,l),
(427,1310,l),
(427,1014,l),
(679,1014,l),
(679,843,l),
(427,843,l),
(427,345,ls),
(427,245,o),
(498,168,o),
(593,168,qs),
(612,168,o),
(656,171,o),
(679,175,q),
(679,0,l),
(643,-6,o),
(580,-13,o),
(549,-13,qs),
(375,-13,o),
(215,144,o),
(215,316,qs)
);
}
);
visible = 1;
width = 717;
}
);
unicode = 116;
}
{
glyphname = v;
layers = (
{
annotations = (
{
pos = (3526.498,35.383);
type = Circle;
width = 30;
}
);
layerId = m001;
shapes = (
{
attr = {
lineCapEnd = "4";
lineCapStart = "4";
strokeHeight = 180;
strokeWidth = 196;
};
closed = 0;
nodes = (
(120,1014,l),
(429,126,ls),
(444,83,o),
(461,73,o),
(506,73,cs),
(516,73,ls),
(561,73,o),
(578,83,o),
(593,126,cs),
(902,1014,l)
);
}
);
width = 1022;
},
{
associatedMasterId = m001;
layerId = "908F89BD-395E-40FE-A928-43F085284CC5";
name = Stroke;
shapes = (
{
attr = {
lineCapEnd = "4";
lineCapStart = "4";
strokeHeight = 180;
strokeWidth = 196;
};
closed = 0;
nodes = (
(120,1014,l),
(429,126,ls),
(444,83,o),
(461,73,o),
(506,73,cs),
(516,73,ls),
(561,73,o),
(578,83,o),
(593,126,cs),
(902,1014,l)
);
}
);
visible = 1;
width = 1022;
},
{
associatedMasterId = m001;
layerId = "CB6AA948-9EF3-445B-B2DC-FAA9DD25BA16";
name = Background;
shapes = (
{
closed = 1;
nodes = (
(783,1014,l),
(1004,1014,l),
(645,0,l),
(377,0,l),
(18,1014,l),
(255,1014,l),
(519,186,l)
);
}
);
visible = 1;
width = 1022;
}
);
unicode = 118;
}
{
glyphname = x;
layers = (
{
layerId = m001;
shapes = (
{
attr = {
lineCapEnd = "2";
lineCapStart = "4";
strokeHeight = 180;
strokeWidth = 196;
};
closed = 0;
nodes = (
(150,1014,l),
(432,602,ls),
(475,538,o),
(476,480,o),
(432,419,cs),
(126,-2,l)
);
},
{
attr = {
lineCapEnd = "2";
lineCapStart = "2";
strokeHeight = 180;
strokeWidth = 196;
};
closed = 0;
nodes = (
(127,-2,l),
(867,1017,l)
);
},
{
attr = {
lineCapEnd = "4";
lineCapStart = "2";
strokeHeight = 180;
strokeWidth = 196;
};
closed = 0;
nodes = (
(866,1017,l),
(574,615,ls),
(529,554,o),
(530,496,o),
(572,433,cs),
(857,-1,l)
);
}
);
width = 1002;
},
{
associatedMasterId = m001;
layerId = "FF6EEFA1-E76E-441D-A7CE-596B4ED9D27A";
name = Stroke;
shapes = (
{
attr = {
lineCapEnd = "2";
lineCapStart = "4";
strokeHeight = 180;
strokeWidth = 196;
};
closed = 0;
nodes = (
(150,1014,l),
(432,602,ls),
(475,538,o),
(476,480,o),
(432,419,cs),
(126,-2,l)
);
},
{
attr = {
lineCapEnd = "2";
lineCapStart = "2";
strokeHeight = 180;
strokeWidth = 196;
};
closed = 0;
nodes = (
(127,-2,l),
(867,1017,l)
);
},
{
attr = {
lineCapEnd = "4";
lineCapStart = "2";
strokeHeight = 180;
strokeWidth = 196;
};
closed = 0;
nodes = (
(866,1017,l),
(574,615,ls),
(529,554,o),
(530,496,o),
(572,433,cs),
(857,-1,l)
);
}
);
visible = 1;
width = 1002;
},
{
associatedMasterId = m001;
layerId = "FF5CA4BB-8D5F-4A9A-A26D-C99E0247BB3B";
name = Background;
shapes = (
{
closed = 1;
nodes = (
(976,1014,l),
(625,514,l),
(987,0,l),
(745,0,l),
(495,378,l),
(244,0,l),
(15,0,l),
(377,514,l),
(26,1014,l),
(269,1014,l),
(508,653,l),
(746,1014,l)
);
}
);
visible = 1;
width = 1002;
}
);
unicode = 120;
}
{
glyphname = braceleft;
layers = (
{
layerId = m001;
shapes = (
{
closed = 1;
nodes = (
(210,383,ls),
(210,470,o),
(148,540,o),
(71,540,qs),
(28,540,l),
(28,710,l),
(71,710,ls),
(148,710,o),
(210,780,o),
(210,867,qs),
(210,1132,ls),
(210,1299,o),
(383,1470,o),
(549,1470,qs),
(655,1470,l),
(655,1298,l),
(566,1298,ls),
(422,1298,o),
(422,1118,qs),
(422,867,ls),
(422,760,o),
(343,645,o),
(254,625,q),
(343,606,o),
(422,490,o),
(422,383,qs),
(422,132,ls),
(422,-48,o),
(566,-48,qs),
(655,-48,l),
(655,-220,l),
(549,-220,ls),
(383,-220,o),
(210,-48,o),
(210,118,qs)
);
}
);
width = 700;
}
);
unicode = 123;
}
{
glyphname = asciitilde;
layers = (
{
layerId = m001;
shapes = (
{
closed = 1;
nodes = (
(213,926,o),
(353,926,qs),
(422,926,o),
(547,864,o),
(621,791,qs),
(691,722,o),
(768,671,o),
(805,671,qs),
(866,671,o),
(935,790,o),
(935,901,q),
(1130,901,l),
(1130,707,o),
(957,474,o),
(817,474,qs),
(748,474,o),
(624,536,o),
(550,609,qs),
(480,678,o),
(403,729,o),
(365,729,qs),
(304,729,o),
(236,609,o),
(236,499,q),
(40,499,l),
(40,693,o)
);
}
);
width = 1170;
}
);
unicode = 126;
}
{
glyphname = exclamdown;
layers = (
{
layerId = m001;
shapes = (
{
closed = 1;
nodes = (
(145,-446,l),
(170,595,l),
(356,595,l),
(380,-446,l)
);
},
{
closed = 1;
nodes = (
(322,758,o),
(204,758,o),
(123,838,o),
(123,958,o),
(204,1037,o),
(322,1037,o),
(402,958,o),
(402,838,o)
);
}
);
width = 526;
}
);
unicode = 161;
}
{
glyphname = cent;
layers = (
{
layerId = m001;
shapes = (
{
closed = 1;
nodes = (
(329,212,o),
(109,487,o),
(109,913,o),
(329,1188,o),
(516,1218,q),
(516,1423,l),
(676,1423,l),
(676,1222,l),
(838,1206,o),
(1036,1010,o),
(1061,841,q),
(847,841,l),
(820,1008,o),
(676,1042,q),
(676,358,l),
(816,392,o),
(844,550,q),
(1059,550,l),
(1002,209,o),
(676,178,q),
(676,-23,l),
(516,-23,l),
(516,182,l)
);
},
{
closed = 1;
nodes = (
(424,1007,o),
(324,834,o),
(324,566,o),
(424,393,o),
(516,365,q),
(516,1035,l)
);
}
);
width = 1170;
}
);
unicode = 162;
}
{
glyphname = currency;
layers = (
{
layerId = m001;
shapes = (
{
closed = 1;
nodes = (
(207,971,q),
(46,1133,l),
(169,1247,l),
(329,1085,l),
(438,1151,o),
(732,1151,o),
(841,1085,q),
(1001,1247,l),
(1125,1133,l),
(964,970,l),
(1041,857,o),
(1041,541,o),
(963,428,q),
(1125,265,l),
(1001,151,l),
(841,313,l),
(732,248,o),
(438,248,o),
(329,313,q),
(169,151,l),
(46,265,l),
(207,427,l),
(129,540,o),
(129,857,o)
);
},
{
closed = 1;
nodes = (
(706,976,o),
(464,976,o),
(335,833,o),
(335,566,o),
(464,422,o),
(706,422,o),
(835,566,o),
(835,833,o)
);
}
);
width = 1170;
}
);
unicode = 164;
}
{
glyphname = yen;
layers = (
{
layerId = m001;
shapes = (
{
closed = 1;
nodes = (
(147,213,l),
(147,368,l),
(475,368,l),
(475,524,l),
(147,524,l),
(147,680,l),
(397,680,l),
(-4,1400,l),
(241,1400,l),
(589,738,l),
(937,1400,l),
(1175,1400,l),
(773,680,l),
(1024,680,l),
(1024,524,l),
(695,524,l),
(695,368,l),
(1024,368,l),
(1024,213,l),
(695,213,l),
(695,0,l),
(475,0,l),
(475,213,l)
);
}
);
width = 1170;
}
);
unicode = 165;
}
{
glyphname = section;
layers = (
{
layerId = m001;
shapes = (
{
closed = 1;
nodes = (
(706,283,o),
(555,330,qs),
(376,384,ls),
(70,477,o),
(70,701,qs),
(70,854,o),
(218,939,q),
(124,1030,o),
(124,1167,qs),
(124,1313,o),
(338,1483,o),
(521,1483,qs),
(694,1483,o),
(907,1320,o),
(923,1175,q),
(727,1175,l),
(703,1322,o),
(521,1322,qs),
(426,1322,o),
(324,1245,o),
(324,1171,qs),
(324,1115,o),
(407,1024,o),
(480,1001,qs),
(659,947,ls),
(965,856,o),
(965,630,qs),
(965,475,o),
(817,393,q),
(911,302,o),
(911,175,qs),
(911,19,o),
(693,-153,o),
(493,-153,qs),
(313,-153,o),
(90,10,o),
(67,158,q),
(263,158,l),
(296,8,o),
(493,8,qs),
(596,8,o),
(706,92,o),
(706,170,qs)
);
},
{
closed = 1;
nodes = (
(681,751,o),
(578,782,qs),
(362,848,l),
(269,809,o),
(269,712,qs),
(269,656,o),
(354,582,o),
(457,550,qs),
(673,483,l),
(766,522,o),
(766,619,qs),
(766,675,o)
);
}
);
width = 1030;
}
);
unicode = 167;
}
{
glyphname = copyright;
layers = (
{
layerId = m001;
shapes = (
{
closed = 1;
nodes = (
(244,1242,o),
(575,1423,o),
(1016,1423,o),
(1346,1242,o),
(1529,917,o),
(1529,483,o),
(1346,158,o),
(1016,-23,o),
(575,-23,o),
(244,158,o),
(61,483,o),
(61,917,o)
);
},
{
closed = 1;
nodes = (
(238,527,o),
(375,272,o),
(625,133,o),
(965,133,o),
(1215,272,o),
(1352,527,o),
(1352,873,o),
(1215,1128,o),
(965,1267,o),
(625,1267,o),
(375,1128,o),
(238,873,o)
);
},
{
closed = 1;
nodes = (
(620,1106,o),
(791,1106,qs),
(939,1106,o),
(1117,957,o),
(1139,814,q),
(977,814,l),
(942,970,o),
(787,970,qs),
(689,970,o),
(576,826,o),
(576,574,o),
(688,430,o),
(787,430,qs),
(940,430,o),
(974,581,q),
(1137,581,l),
(1090,294,o),
(791,294,qs),
(619,294,o),
(413,516,o),
(413,885,o)
);
}
);
width = 1590;
}
);
unicode = 169;
}
{
glyphname = ordfeminine;
layers = (
{
layerId = m001;
shapes = (
{
closed = 1;
nodes = (
(48,1036,o),
(190,1145,o),
(318,1145,qs),
(460,1145,l),
(460,1151,ls),
(460,1292,o),
(331,1292,qs),
(227,1292,o),
(209,1213,q),
(59,1213,l),
(72,1311,o),
(220,1423,o),
(335,1423,qs),
(471,1423,o),
(615,1285,o),
(615,1149,qs),
(615,757,l),
(465,757,l),
(465,845,l),
(403,744,o),
(258,744,qs),
(161,744,o),
(48,847,o),
(48,937,qs)
);
},
{
closed = 1;
nodes = (
(202,866,o),
(303,866,qs),
(371,866,o),
(460,943,o),
(460,1013,qs),
(460,1041,l),
(335,1041,ls),
(202,1041,o),
(202,946,qs)
);
}
);
width = 686;
}
);
unicode = 170;
}
{
glyphname = logicalnot;
layers = (
{
layerId = m001;
shapes = (
{
closed = 1;
nodes = (
(86,608,l),
(86,793,l),
(1084,793,l),
(1084,215,l),
(890,215,l),
(890,608,l)
);
}
);
width = 1170;
}
);
unicode = 172;
}
{
glyphname = registered;
layers = (
{
layerId = m001;
shapes = (
{
closed = 1;
nodes = (
(174,1369,o),
(385,1483,o),
(665,1483,o),
(876,1369,o),
(993,1164,o),
(993,892,o),
(876,688,o),
(665,574,o),
(385,574,o),
(174,688,o),
(56,892,o),
(56,1164,o)
);
},
{
closed = 1;
nodes = (
(186,871,o),
(368,690,o),
(682,690,o),
(863,871,o),
(863,1186,o),
(682,1367,o),
(368,1367,o),
(186,1186,o)
);
},
{
closed = 1;
nodes = (
(345,796,l),
(345,1264,l),
(546,1264,ls),
(630,1264,o),
(723,1185,o),
(723,1114,qs),
(723,1005,o),
(630,970,q),
(736,796,l),
(623,796,l),
(528,956,l),
(449,956,l),
(449,796,l)
);
},
{
closed = 1;
nodes = (
(532,1169,qs),
(449,1169,l),
(449,1052,l),
(532,1052,ls),
(610,1052,o),
(610,1169,o)
);
}
);
width = 1049;
}
);
unicode = 174;
}
{
glyphname = degree;
layers = (
{
layerId = m001;
shapes = (
{
closed = 1;
nodes = (
(192,1483,o),
(432,1483,o),
(579,1345,o),
(579,1120,o),
(432,981,o),
(192,981,o),
(45,1120,o),
(45,1345,o)
);
},
{
closed = 1;
nodes = (
(368,1360,o),
(256,1360,o),
(188,1291,o),
(188,1174,o),
(256,1104,o),
(368,1104,o),
(435,1174,o),
(435,1291,o)
);
}
);
width = 624;
}
);
unicode = 176;
}
{
glyphname = multiply;
layers = (
{
layerId = m001;
shapes = (
{
closed = 1;
nodes = (
(115,1026,l),
(252,1152,l),
(587,829,l),
(921,1152,l),
(1056,1030,l),
(718,703,l),
(1056,377,l),
(919,250,l),
(584,574,l),
(249,250,l),
(115,372,l),
(453,699,l)
);
}
);
width = 1170;
}
);
unicode = 215;
}
{
glyphname = Oslash;
layers = (
{
layerId = m001;
shapes = (
{
closed = 1;
nodes = (
(61,911,o),
(223,1237,o),
(526,1423,o),
(735,1423,qs),
(846,1423,o),
(1037,1368,o),
(1114,1317,q),
(1237,1468,l),
(1389,1353,l),
(1255,1188,l),
(1408,994,o),
(1408,700,qs),
(1408,489,o),
(1246,163,o),
(944,-23,o),
(735,-23,qs),
(623,-23,o),
(432,32,o),
(355,83,q),
(232,-68,l),
(80,47,l),
(214,212,l),
(61,406,o),
(61,700,qs)
);
},
{
closed = 1;
nodes = (
(1112,1012,q),
(483,241,l),
(589,165,o),
(735,165,qs),
(872,165,o),
(1071,296,o),
(1180,537,o),
(1180,700,qs),
(1180,882,o)
);
},
{
closed = 1;
nodes = (
(880,1235,o),
(735,1235,qs),
(598,1235,o),
(398,1104,o),
(289,864,o),
(289,700,qs),
(289,518,o),
(357,388,q),
(986,1159,l)
);
}
);
width = 1469;
}
);
unicode = 216;
}
{
glyphname = germandbls;
layers = (
{
layerId = m001;
shapes = (
{
closed = 1;
nodes = (
(484,176,o),
(561,162,o),
(604,162,qs),
(717,162,o),
(841,293,o),
(841,405,qs),
(841,533,o),
(714,670,o),
(594,670,qs),
(462,670,l),
(462,841,l),
(518,841,ls),
(631,841,o),
(761,965,o),
(761,1073,qs),
(761,1179,o),
(648,1298,o),
(546,1298,qs),
(311,1298,o),
(311,1024,qs),
(311,0,l),
(99,0,l),
(99,1054,ls),
(99,1255,o),
(338,1483,o),
(546,1483,qs),
(676,1483,o),
(870,1385,o),
(977,1209,o),
(977,1091,qs),
(977,880,o),
(779,782,q),
(1057,723,o),
(1057,386,qs),
(1057,194,o),
(830,-23,o),
(627,-23,qs),
(529,-23,o),
(442,4,q),
(442,189,l)
);
}
);
width = 1106;
}
);
unicode = 223;
}
{
glyphname = divide;
layers = (
{
layerId = m001;
shapes = (
{
closed = 1;
nodes = (
(1084,793,l),
(1084,607,l),
(86,607,l),
(86,793,l)
);
},
{
closed = 1;
nodes = (
(524,430,o),
(647,430,o),
(730,348,o),
(730,226,o),
(647,145,o),
(524,145,o),
(441,226,o),
(441,348,o)
);
},
{
closed = 1;
nodes = (
(524,1255,o),
(647,1255,o),
(730,1174,o),
(730,1052,o),
(647,970,o),
(524,970,o),
(441,1052,o),
(441,1174,o)
);
}
);
width = 1170;
}
);
unicode = 247;
}
{
glyphname = oslash;
layers = (
{
layerId = m001;
shapes = (
{
closed = 1;
nodes = (
(55,668,o),
(179,906,o),
(405,1037,o),
(709,1037,o),
(824,971,q),
(919,1092,l),
(1058,985,l),
(955,854,l),
(1059,716,o),
(1059,507,qs),
(1059,347,o),
(936,108,o),
(710,-23,o),
(557,-23,qs),
(406,-23,o),
(291,43,q),
(196,-78,l),
(57,29,l),
(160,159,l),
(55,298,o),
(55,507,qs)
);
},
{
closed = 1;
nodes = (
(271,404,o),
(301,328,q),
(705,817,l),
(642,854,o),
(557,854,qs),
(421,854,o),
(271,671,o),
(271,507,qs)
);
},
{
closed = 1;
nodes = (
(472,160,o),
(557,160,qs),
(693,160,o),
(844,342,o),
(844,507,qs),
(844,610,o),
(814,685,q),
(410,196,l)
);
}
);
width = 1114;
}
);
unicode = 248;
}
{
glyphname = thorn;
layers = (
{
layerId = m001;
shapes = (
{
closed = 1;
nodes = (
(308,1460,l),
(308,857,l),
(353,937,o),
(530,1037,o),
(644,1037,qs),
(782,1037,o),
(983,906,o),
(1093,668,o),
(1093,348,o),
(983,109,o),
(781,-23,o),
(644,-23,qs),
(529,-23,o),
(359,73,o),
(312,149,q),
(312,-370,l),
(99,-370,l),
(99,1460,l)
);
},
{
closed = 1;
nodes = (
(725,852,o),
(457,852,o),
(307,669,o),
(307,345,o),
(457,162,o),
(725,162,o),
(875,345,o),
(875,669,o)
);
}
);
width = 1148;
}
);
unicode = 254;
}
{
glyphname = dcroat;
layers = (
{
layerId = m001;
shapes = (
{
closed = 1;
nodes = (
(165,899,o),
(367,1030,o),
(505,1030,qs),
(619,1030,o),
(790,934,o),
(837,857,q),
(837,1152,l),
(577,1152,l),
(577,1313,l),
(837,1313,l),
(837,1460,l),
(1049,1460,l),
(1049,1313,l),
(1199,1313,l),
(1199,1152,l),
(1049,1152,l),
(1049,0,l),
(843,0,l),
(843,161,l),
(799,81,o),
(621,-23,o),
(505,-23,qs),
(367,-23,o),
(165,108,o),
(55,345,o),
(55,662,o)
);
},
{
closed = 1;
nodes = (
(691,845,o),
(424,845,o),
(273,663,o),
(273,344,o),
(424,162,o),
(691,162,o),
(841,346,o),
(841,503,qs),
(841,664,o)
);
}
);
width = 1226;
}
);
unicode = 273;
}
{
glyphname = Hbar;
layers = (
{
layerId = m001;
shapes = (
{
closed = 1;
nodes = (
(218,1187,l),
(218,1400,l),
(441,1400,l),
(441,1187,l),
(1148,1187,l),
(1148,1400,l),
(1371,1400,l),
(1371,1187,l),
(1561,1187,l),
(1561,1003,l),
(1371,1003,l),
(1371,0,l),
(1148,0,l),
(1148,602,l),
(441,602,l),
(441,0,l),
(218,0,l),
(218,1003,l),
(28,1003,l),
(28,1187,l)
);
},
{
closed = 1;
nodes = (
(441,1003,l),
(441,802,l),
(1148,802,l),
(1148,1003,l)
);
}
);
width = 1589;
}
);
unicode = 294;
}
{
glyphname = hbar;
layers = (
{
layerId = m001;
shapes = (
{
closed = 1;
nodes = (
(28,1152,l),
(28,1313,l),
(178,1313,l),
(178,1460,l),
(390,1460,l),
(390,1313,l),
(650,1313,l),
(650,1152,l),
(390,1152,l),
(390,869,l),
(436,938,o),
(601,1030,o),
(710,1030,qs),
(1077,1030,o),
(1077,598,qs),
(1077,0,l),
(865,0,l),
(865,574,ls),
(865,715,o),
(766,844,o),
(541,844,o),
(390,692,o),
(390,570,qs),
(390,0,l),
(178,0,l),
(178,1152,l)
);
}
);
width = 1172;
}
);
unicode = 295;
}
{
glyphname = dotlessi;
layers = (
{
layerId = m001;
shapes = (
{
attr = {
strokeHeight = 180;
strokeWidth = 196;
};
closed = 0;
nodes = (
(206,1014,l),
(206,0,ls)
);
}
);
width = 411;
},
{
associatedMasterId = m001;
layerId = "A4B9C8E2-DAC2-4A65-B30B-AF18D1A0E2BA";
name = Stroke;
shapes = (
{
attr = {
strokeHeight = 180;
strokeWidth = 196;
};
closed = 0;
nodes = (
(206,1014,l),
(206,0,ls)
);
}
);
visible = 1;
width = 411;
},
{
associatedMasterId = m001;
layerId = "25E97924-FCD8-4299-A2BF-B4EC0AEDB31E";
name = Background;
shapes = (
{
closed = 1;
nodes = (
(312,1014,l),
(312,0,l),
(99,0,l),
(99,1014,l)
);
}
);
visible = 1;
width = 411;
}
);
unicode = 305;
}
{
glyphname = IJ;
layers = (
{
layerId = m001;
shapes = (
{
closed = 1;
nodes = (
(816,1400,l),
(1039,1400,l),
(1039,469,ls),
(1039,232,o),
(797,-23,o),
(568,-23,qs),
(366,-23,o),
(133,183,o),
(102,408,q),
(330,408,l),
(349,277,o),
(464,170,o),
(567,170,qs),
(689,170,o),
(816,321,o),
(816,466,qs)
);
},
{
closed = 1;
nodes = (
(326,1400,l),
(326,563,l),
(102,563,l),
(102,1400,l)
);
}
);
width = 1142;
}
);
unicode = 306;
}
{
glyphname = Lslash;
layers = (
{
layerId = m001;
shapes = (
{
closed = 1;
nodes = (
(218,653,l),
(218,1400,l),
(441,1400,l),
(441,782,l),
(845,1076,l),
(845,851,l),
(441,557,l),
(441,199,l),
(1147,199,l),
(1147,0,l),
(218,0,l),
(218,430,l),
(28,290,l),
(28,514,l)
);
}
);
width = 1200;
}
);
unicode = 321;
}
{
glyphname = lslash;
layers = (
{
layerId = m001;
shapes = (
{
closed = 1;
nodes = (
(196,745,l),
(196,1460,l),
(408,1460,l),
(408,860,l),
(576,980,l),
(576,786,l),
(408,665,l),
(408,0,l),
(196,0,l),
(196,549,l),
(28,428,l),
(28,622,l)
);
}
);
width = 604;
}
);
unicode = 322;
}
{
glyphname = Eng;
layers = (
{
layerId = m001;
shapes = (
{
closed = 1;
nodes = (
(366,1400,l),
(1052,353,l),
(1052,1400,l),
(1267,1400,l),
(1267,-67,ls),
(1267,-239,o),
(1109,-393,o),
(936,-393,qs),
(897,-393,o),
(838,-385,o),
(807,-378,q),
(807,-204,l),
(827,-208,o),
(871,-214,o),
(897,-214,qs),
(986,-214,o),
(1052,-142,o),
(1052,-56,qs),
(1052,1,l),
(330,1098,l),
(330,0,l),
(114,0,l),
(114,1400,l)
);
}
);
width = 1382;
}
);
unicode = 330;
}
{
glyphname = eng;
layers = (
{
layerId = m001;
shapes = (
{
closed = 1;
nodes = (
(621,-215,o),
(668,-215,qs),
(736,-215,o),
(787,-143,o),
(787,-48,qs),
(787,581,ls),
(787,722,o),
(687,852,o),
(462,852,o),
(312,700,o),
(312,577,qs),
(312,0,l),
(99,0,l),
(99,1014,l),
(305,1014,l),
(305,868,l),
(352,943,o),
(521,1037,o),
(632,1037,qs),
(999,1037,o),
(999,605,qs),
(999,-67,ls),
(999,-239,o),
(856,-393,o),
(707,-393,qs),
(672,-393,o),
(613,-384,o),
(587,-378,q),
(587,-205,l)
);
}
);
width = 1094;
}
);
unicode = 331;
}
{
glyphname = OE;
layers = (
{
layerId = m001;
shapes = (
{
closed = 1;
nodes = (
(222,1237,o),
(520,1423,o),
(723,1423,qs),
(1048,1423,o),
(1174,1161,q),
(1174,1400,l),
(2098,1400,l),
(2098,1205,l),
(1395,1205,l),
(1395,808,l),
(1966,808,l),
(1966,616,l),
(1395,616,l),
(1395,195,l),
(2114,195,l),
(2114,0,l),
(1174,0,l),
(1174,239,l),
(1048,-23,o),
(723,-23,qs),
(520,-23,o),
(222,163,o),
(61,489,o),
(61,911,o)
);
},
{
closed = 1;
nodes = (
(291,538,o),
(400,299,o),
(599,168,o),
(871,168,o),
(1070,299,o),
(1178,538,o),
(1178,863,o),
(1070,1101,o),
(871,1232,o),
(599,1232,o),
(400,1101,o),
(291,863,o)
);
}
);
width = 2197;
}
);
unicode = 338;
}
{
glyphname = Tbar;
layers = (
{
layerId = m001;
shapes = (
{
closed = 1;
nodes = (
(514,768,l),
(514,1201,l),
(54,1201,l),
(54,1400,l),
(1197,1400,l),
(1197,1201,l),
(737,1201,l),
(737,768,l),
(1019,768,l),
(1019,575,l),
(737,575,l),
(737,0,l),
(514,0,l),
(514,575,l),
(239,575,l),
(239,768,l)
);
}
);
width = 1251;
}
);
unicode = 358;
}
{
glyphname = tbar;
layers = (
{
layerId = m001;
shapes = (
{
closed = 1;
nodes = (
(215,447,l),
(25,447,l),
(25,608,l),
(215,608,l),
(215,843,l),
(25,843,l),
(25,1014,l),
(215,1014,l),
(215,1310,l),
(427,1310,l),
(427,1014,l),
(679,1014,l),
(679,843,l),
(427,843,l),
(427,608,l),
(677,608,l),
(677,447,l),
(427,447,l),
(427,345,ls),
(427,245,o),
(498,168,o),
(593,168,qs),
(612,168,o),
(656,171,o),
(679,175,q),
(679,0,l),
(643,-6,o),
(580,-13,o),
(549,-13,qs),
(375,-13,o),
(215,144,o),
(215,316,qs)
);
}
);
width = 717;
}
);
unicode = 359;
}
{
glyphname = uni0237;
layers = (
{
layerId = m001;
shapes = (
{
attr = {
strokeHeight = 180;
strokeWidth = 196;
};
closed = 0;
nodes = (
(206,1014,l),
(206,-84,ls),
(206,-244,o),
(176,-302,o),
(1,-302,cs),
(-101,-302,l)
);
}
);
width = 411;
},
{
associatedMasterId = m001;
layerId = "3179C6E0-AAF3-4BB8-93BD-70AC0D8CD2A4";
name = Stroke;
shapes = (
{
attr = {
strokeHeight = 180;
strokeWidth = 196;
};
closed = 0;
nodes = (
(206,1014,l),
(206,-27,ls),
(206,-281,o),
(187,-302,o),
(-99,-302,c)
);
}
);
visible = 1;
width = 411;
},
{
associatedMasterId = m001;
layerId = "15663999-0B77-48FF-A038-9A1FB70E3251";
name = Background;
shapes = (
{
closed = 1;
nodes = (
(-66,-215,o),
(-20,-215,qs),
(48,-215,o),
(99,-143,o),
(99,-48,qs),
(99,1014,l),
(312,1014,l),
(312,-67,ls),
(312,-239,o),
(169,-393,o),
(19,-393,qs),
(-16,-393,o),
(-74,-384,o),
(-100,-378,q),
(-100,-205,l)
);
}
);
visible = 1;
width = 411;
}
);
unicode = 567;
}
{
glyphname = gravecomb;
layers = (
{
layerId = m001;
shapes = (
{
closed = 1;
nodes = (
(-58,1160,l),
(-272,1518,l),
(-34,1518,l),
(131,1160,l)
);
}
);
width = 0;
}
);
unicode = 768;
}
{
glyphname = acutecomb;
layers = (
{
layerId = m001;
shapes = (
{
closed = 1;
nodes = (
(265,1518,l),
(51,1160,l),
(-138,1160,l),
(28,1518,l)
);
}
);
width = 0;
}
);
unicode = 769;
}
{
glyphname = tildecomb;
layers = (
{
layerId = m001;
shapes = (
{
closed = 1;
nodes = (
(-381,1176,l),
(-381,1323,o),
(-259,1491,o),
(-153,1491,qs),
(-94,1491,o),
(-1,1437,o),
(51,1370,qs),
(83,1328,o),
(119,1298,o),
(139,1298,qs),
(221,1298,o),
(221,1467,q),
(381,1467,l),
(381,1321,o),
(259,1152,o),
(153,1152,qs),
(95,1152,o),
(1,1207,o),
(-51,1274,qs),
(-82,1315,o),
(-119,1345,o),
(-139,1345,qs),
(-221,1345,o),
(-221,1176,q)
);
}
);
width = 0;
}
);
unicode = 771;
}
{
glyphname = uni0307;
layers = (
{
layerId = m001;
shapes = (
{
closed = 1;
nodes = (
(-55,1410,o),
(56,1410,o),
(131,1337,o),
(131,1228,o),
(56,1154,o),
(-55,1154,o),
(-131,1228,o),
(-131,1337,o)
);
}
);
width = 0;
}
);
unicode = 775;
}
{
glyphname = uni0308;
layers = (
{
layerId = m001;
shapes = (
{
closed = 1;
nodes = (
(153,1406,o),
(261,1406,o),
(333,1333,o),
(333,1227,o),
(261,1154,o),
(153,1154,o),
(82,1227,o),
(82,1333,o)
);
},
{
closed = 1;
nodes = (
(-261,1406,o),
(-153,1406,o),
(-82,1333,o),
(-82,1227,o),
(-153,1154,o),
(-261,1154,o),
(-333,1227,o),
(-333,1333,o)
);
}
);
width = 0;
}
);
unicode = 776;
}
{
glyphname = dotbelowcomb;
layers = (
{
layerId = m001;
shapes = (
{
closed = 1;
nodes = (
(-55,-120,o),
(56,-120,o),
(131,-193,o),
(131,-303,o),
(56,-376,o),
(-55,-376,o),
(-131,-303,o),
(-131,-193,o)
);
}
);
width = 0;
}
);
unicode = 803;
}
{
glyphname = uni0326;
layers = (
{
layerId = m001;
shapes = (
{
closed = 1;
nodes = (
(116,-120,l),
(-59,-503,l),
(-230,-503,l),
(-105,-120,l)
);
}
);
width = 0;
}
);
unicode = 806;
}
{
glyphname = uni0328;
layers = (
{
layerId = m001;
shapes = (
{
closed = 1;
nodes = (
(-367,-45,o),
(-40,66,q),
(0,0,l),
(-192,-106,o),
(-192,-215,qs),
(-192,-311,o),
(-78,-311,qs),
(-36,-311,o),
(0,-299,q),
(0,-429,l),
(-25,-436,o),
(-87,-445,o),
(-120,-445,qs),
(-238,-445,o),
(-367,-338,o),
(-367,-247,qs)
);
}
);
width = 0;
}
);
unicode = 808;
}
{
glyphname = uni1E9E;
layers = (
{
layerId = m001;
shapes = (
{
closed = 1;
nodes = (
(581,205,o),
(721,166,o),
(791,166,qs),
(1090,166,o),
(1090,414,qs),
(1090,536,o),
(959,669,o),
(837,669,qs),
(765,669,o),
(675,651,q),
(675,806,l),
(1025,1163,l),
(953,1198,o),
(806,1231,o),
(732,1231,qs),
(533,1231,o),
(326,1029,o),
(326,841,qs),
(326,0,l),
(102,0,l),
(102,842,ls),
(102,1122,o),
(425,1423,o),
(726,1423,qs),
(863,1423,o),
(1129,1352,o),
(1237,1286,q),
(1237,1119,l),
(948,825,l),
(1121,813,o),
(1319,599,o),
(1319,408,qs),
(1319,200,o),
(1054,-23,o),
(814,-23,qs),
(716,-23,o),
(553,16,o),
(483,52,q),
(483,252,l)
);
}
);
width = 1363;
}
);
unicode = 7838;
}
{
glyphname = quoteleft;
layers = (
{
layerId = m001;
shapes = (
{
closed = 1;
nodes = (
(95,924,l),
(228,1460,l),
(405,1460,l),
(320,924,l)
);
}
);
width = 499;
}
);
unicode = 8216;
}
{
glyphname = quoteright;
layers = (
{
layerId = m001;
shapes = (
{
closed = 1;
nodes = (
(405,1460,l),
(272,924,l),
(95,924,l),
(179,1460,l)
);
}
);
width = 499;
}
);
unicode = 8217;
}
{
glyphname = daggerdbl;
layers = (
{
layerId = m001;
shapes = (
{
closed = 1;
nodes = (
(332,728,l),
(332,1002,l),
(44,1002,l),
(44,1161,l),
(332,1161,l),
(332,1460,l),
(512,1460,l),
(512,1161,l),
(800,1161,l),
(800,1002,l),
(512,1002,l),
(512,728,l),
(800,728,l),
(800,570,l),
(512,570,l),
(512,271,l),
(332,271,l),
(332,570,l),
(44,570,l),
(44,728,l)
);
}
);
width = 843;
}
);
unicode = 8225;
}
{
glyphname = guilsinglleft;
layers = (
{
layerId = m001;
shapes = (
{
closed = 1;
nodes = (
(321,876,l),
(541,876,l),
(274,501,l),
(541,125,l),
(321,125,l),
(62,496,l),
(62,506,l)
);
}
);
width = 594;
}
);
unicode = 8249;
}
{
glyphname = guilsinglright;
layers = (
{
layerId = m001;
shapes = (
{
closed = 1;
nodes = (
(273,125,l),
(53,125,l),
(320,501,l),
(53,876,l),
(273,876,l),
(532,505,l),
(532,496,l)
);
}
);
width = 594;
}
);
unicode = 8250;
}
{
glyphname = uni20BD;
layers = (
{
layerId = m001;
shapes = (
{
closed = 1;
nodes = (
(-11,223,l),
(-11,379,l),
(177,379,l),
(177,535,l),
(-11,535,l),
(-11,712,l),
(177,712,l),
(177,1400,l),
(662,1400,ls),
(913,1400,o),
(1182,1176,o),
(1182,759,o),
(913,535,o),
(662,535,qs),
(393,535,l),
(393,379,l),
(726,379,l),
(726,223,l),
(393,223,l),
(393,0,l),
(177,0,l),
(177,223,l)
);
},
{
closed = 1;
nodes = (
(640,1223,qs),
(393,1223,l),
(393,712,l),
(640,712,ls),
(960,712,o),
(960,1223,o)
);
}
);
width = 1170;
}
);
unicode = 8381;
}
{
glyphname = minus;
layers = (
{
layerId = m001;
shapes = (
{
closed = 1;
nodes = (
(1084,793,l),
(1084,608,l),
(86,608,l),
(86,793,l)
);
}
);
width = 1170;
}
);
unicode = 8722;
}
{
glyphname = uniFB01;
layers = (
{
layerId = m001;
shapes = (
{
attr = {
identifier = ID0x12d842dd0;
lineCapEnd = 2;
lineCapStart = "2";
strokeHeight = 180;
strokeWidth = 196;
};
closed = 0;
nodes = (
(324,3,ls),
(321,767,ls),
(321,852,o),
(263,921,o),
(176,921,cs),
(17,921,l)
);
},
{
attr = {
identifier = ID0x12d842dd0;
lineCapStart = "2";
strokeHeight = 180;
strokeWidth = 196;
};
closed = 0;
nodes = (
(17,923,l),
(179,923,ls),
(270,923,o),
(324,990,o),
(324,1077,cs),
(324,1143,ls),
(324,1278,o),
(393,1392,o),
(572,1392,cs),
(706,1392,l)
);
},
{
pos = (928,0);
ref = uni0307;
},
{
attr = {
identifier = ID0x12d842dd0;
lineCapStart = "2";
strokeHeight = 180;
strokeWidth = 196;
};
closed = 0;
nodes = (
(325,3,ls),
(325,767,ls),
(325,852,o),
(383,921,o),
(470,921,cs),
(868,921,ls),
(907,921,o),
(928,900,o),
(928,861,cs),
(928,0,ls)
);
}
);
width = 1133;
}
);
unicode = 64257;
}
{
glyphname = A.alt;
layers = (
{
layerId = m001;
shapes = (
{
attr = {
lineCapEnd = "2";
lineCapStart = "4";
strokeHeight = 198;
strokeWidth = 212;
};
closed = 0;
nodes = (
(133,0,l),
(581,1259,ls),
(596,1302,o),
(613,1312,o),
(658,1312,cs),
(661,1312,ls),
(706,1312,o),
(722,1301,o),
(738,1258,cs),
(945,692,ls),
(1022,482,o),
(729,461,o),
(658,453,cs),
(604,447,o),
(588,461,o),
(588,478,cs),
(588,496,o),
(603,507,o),
(656,502,cs),
(738,495,o),
(1018,459,o),
(1069,315,cs),
(1180,2,l)
);
}
);
width = 1320;
}
);
}
{
glyphname = K.alt;
layers = (
{
layerId = m001;
shapes = (
{
attr = {
lineCapEnd = 4;
strokeHeight = 198;
strokeWidth = 212;
};
closed = 0;
nodes = (
(220,1403,l),
(220,119,ls),
(220,82,o),
(250,71,o),
(269,107,cs),
(490,537,o),
(701,771,o),
(1044,1220,cs),
(1120,1320,o),
(1016,1372,o),
(972,1259,cs),
(814,857,ls),
(692,546,o),
(868,342,o),
(1090,0,c)
);
}
);
width = 1219;
}
);
}
{
glyphname = M.alt2;
layers = (
{
layerId = m001;
shapes = (
{
closed = 1;
nodes = (
(1270.758,798.844,ls),
(1237.688,852.336,o),
(1205.914,901.578,o),
(1175.414,946.555,c),
(1285.547,1115.633,o),
(1376.398,1199.875,o),
(1484.445,1199.875,cs),
(1708.898,1199.875,o),
(1888.469,871.172,o),
(1888.469,467.406,cs),
(1888.469,313.508,o),
(1837.789,224.203,o),
(1732.781,224.203,cs),
(1632.133,224.203,o),
(1584.055,290.32,o),
(1392.953,596.148,cs)
);
},
{
closed = 1;
nodes = (
(549.344,285.953,o),
(488.219,224.203,o),
(389.836,224.203,cs),
(288.594,224.203,o),
(228.414,312.617,o),
(228.414,470.266,cs),
(228.414,807.516,o),
(397.477,1152.375,o),
(599.016,1152.375,cs),
(708.156,1152.375,o),
(799.352,1089.68,o),
(939.055,890.766,c),
(806.406,688.391,o),
(726.047,561.461,o),
(726.047,561.461,c)
);
},
{
closed = 1;
nodes = (
(1327.875,1377.523,o),
(1194.289,1249.508,o),
(1073.359,1086.875,c),
(907.18,1297.336,o),
(768.195,1377.523,o),
(601.883,1377.523,cs),
(262.797,1377.523,o),
(3,938.617,o),
(3,474.062,cs),
(3,183.359,o),
(144.398,0,o),
(381.242,0,cs),
(551.703,0,o),
(674.305,79.938,o),
(892.25,458.859,c),
(892.25,458.859,o),
(983.102,618.438,o),
(1045.594,728.359,c),
(1067.5,693.188,o),
(1090.57,655.289,o),
(1114.797,614.664,cs),
(1217,443.656,ls),
(1416.086,112.305,o),
(1527.008,0,o),
(1728.008,0,cs),
(1958.734,0,o),
(2087.141,185.859,o),
(2087.141,482.617,cs),
(2087.141,969.023,o),
(1821.484,1377.523,o),
(1498.773,1377.523,cs)
);
}
);
width = 1655;
}
);
}
{
glyphname = M.opsz48;
layers = (
{
layerId = m001;
shapes = (
{
closed = 1;
nodes = (
(386,1400,l),
(834,234,l),
(1281,1400,l),
(1553,1400,l),
(1553,0,l),
(1345,0,l),
(1345,1077,l),
(934,0,l),
(732,0,l),
(322,1063,l),
(322,0,l),
(114,0,l),
(114,1400,l)
);
}
);
width = 1667;
}
);
}
{
glyphname = O.alt;
layers = (
{
layerId = m001;
shapes = (
{
closed = 1;
nodes = (
(499.258,182.539,o),
(266.539,415.266,o),
(266.539,702.344,cs),
(266.539,989.422,o),
(499.258,1222.141,o),
(786.336,1222.141,cs),
(1073.414,1222.141,o),
(1306.141,989.422,o),
(1306.141,702.344,cs),
(1306.141,415.266,o),
(1073.414,182.539,o),
(786.336,182.539,cs)
);
},
{
closed = 1;
nodes = (
(385.742,1427.688,o),
(61,1102.938,o),
(61,702.344,cs),
(61,301.75,o),
(385.742,-23,o),
(786.336,-23,cs),
(1186.938,-23,o),
(1511.68,301.75,o),
(1511.68,702.344,cs),
(1511.68,1102.938,o),
(1186.938,1427.688,o),
(786.336,1427.688,cs)
);
}
);
width = 1469;
}
);
}
{
glyphname = V_I.liga;
layers = (
{
layerId = m001;
shapes = (
{
closed = 1;
nodes = (
(1857,1479,o),
(1649,1397,o),
(1477,1263,cs),
(1207,1053,o),
(1021,701,o),
(845,409,cs),
(831,387,o),
(829,381,o),
(819,381,cs),
(813,381,o),
(809,385,o),
(809,397,cs),
(809,1089,l),
(815,1291,o),
(743,1335,o),
(639,1335,cs),
(501,1335,o),
(285,1231,o),
(137,1161,c),
(137,841,l),
(445,985,ls),
(477,1001,o),
(503,1011,o),
(513,1011,cs),
(541,1011,o),
(541,975,o),
(541,945,cs),
(541,191,ls),
(541,31,o),
(651,-29,o),
(731,-29,cs),
(849,-29,o),
(927,37,o),
(999,143,cs),
(1195,429,o),
(1367,807,o),
(1641,1021,cs),
(1777,1127,o),
(1931,1189,o),
(2122,1189,c),
(2122,1479,l)
);
},
{
closed = 1;
nodes = (
(1847,0,l),
(2122,0,l),
(2122,1010,l),
(1847,1010,l)
);
},
{
closed = 1;
nodes = (
(3020,179,o),
(3125,294,o),
(3125,527,cs),
(3125,732,o),
(2990,869,o),
(2859,869,cs),
(2660,869,o),
(2569,696,o),
(2569,502,cs),
(2569,287,o),
(2690,179,o),
(2859,179,cs)
);
},
{
closed = 1;
nodes = (
(2564,1483,l),
(2564,903,l),
(2609,994,o),
(2728,1069,o),
(2882,1069,cs),
(3174,1069,o),
(3373,866,o),
(3373,527,cs),
(3373,156,o),
(3151,-21,o),
(2859,-21,cs),
(2728,-21,o),
(2620,27,o),
(2565,125,c),
(2565,0,l),
(2315,0,l),
(2314,1483,l)
);
},
{
closed = 1;
nodes = (
(3878,610,l),
(4225,610,l),
(4225,761,o),
(4133,865,o),
(4003,865,cs),
(3838,865,o),
(3719,751,o),
(3719,519,cs),
(3719,283,o),
(3828,174,o),
(4003,174,cs),
(4107,174,o),
(4171,207,o),
(4242,283,c),
(4425,154,l),
(4332,35,o),
(4231,-24,o),
(4003,-24,cs),
(3700,-24,o),
(3472,157,o),
(3472,519,cs),
(3472,872,o),
(3711,1064,o),
(4003,1064,cs),
(4299,1064,o),
(4474,851,o),
(4474,590,cs),
(4474,470,o),
(4396,428,o),
(4301,428,cs),
(3878,428,l)
);
},
{
closed = 1;
nodes = (
(4884,856,o),
(4833,804,o),
(4833,739,cs),
(4833,690,o),
(4898,649,o),
(5024,624,cs),
(5236,583,o),
(5436,522,o),
(5436,306,cs),
(5436,115,o),
(5256,-13,o),
(5002,-13,cs),
(4804,-13,o),
(4638,72,o),
(4561,217,c),
(4748,332,l),
(4820,219,o),
(4887,188,o),
(5002,188,cs),
(5133,188,o),
(5189,233,o),
(5189,306,cs),
(5189,386,o),
(5117,406,o),
(4979,433,cs),
(4743,476,o),
(4586,574,o),
(4586,739,cs),
(4586,911,o),
(4741,1058,o),
(5007,1058,cs),
(5169,1058,o),
(5337,983,o),
(5401,836,c),
(5196,732,l),
(5161,822,o),
(5083,856,o),
(5007,856,cs)
);
}
);
width = 5600;
}
);
}
{
glyphname = W.alt;
layers = (
{
layerId = m001;
shapes = (
{
attr = {
lineCapEnd = 4;
lineCapStart = "4";
strokeHeight = 198;
strokeWidth = 212;
};
closed = 0;
nodes = (
(132,1401,l),
(489,120,ls),
(493,106,o),
(502,98,o),
(518,98,cs),
(565,98,ls),
(580,98,o),
(589,105,o),
(595,118,cs),
(913,799,ls),
(967,914,o),
(1009,1152,o),
(942,1152,cs),
(883,1152,o),
(905,917,o),
(960,799,cs),
(1276,118,ls),
(1282,105,o),
(1291,98,o),
(1307,98,cs),
(1353,98,ls),
(1370,98,o),
(1379,106,o),
(1383,120,cs),
(1739,1401,l)
);
}
);
width = 1874;
}
);
}
{
glyphname = a.alt;
layers = (
{
layerId = m001;
shapes = (
{
closed = 1;
nodes = (
(165,906,o),
(367,1037,o),
(504,1037,qs),
(620,1037,o),
(794,938,o),
(840,860,q),
(840,1014,l),
(1049,1014,l),
(1049,0,l),
(840,0,l),
(840,154,l),
(794,76,o),
(620,-23,o),
(504,-23,qs),
(367,-23,o),
(165,108,o),
(55,346,o),
(55,668,o)
);
},
{
closed = 1;
nodes = (
(691,852,o),
(423,852,o),
(273,670,o),
(273,344,o),
(423,162,o),
(691,162,o),
(841,344,o),
(841,670,o)
);
}
);
width = 1148;
}
);
}
{
glyphname = acutecomb.cap;
layers = (
{
layerId = m001;
shapes = (
{
closed = 1;
nodes = (
(303,1838,l),
(57,1520,l),
(-146,1520,l),
(50,1838,l)
);
}
);
width = 0;
}
);
}
{
glyphname = dotbelowcomb.cap;
layers = (
{
layerId = m001;
shapes = (
{
closed = 1;
nodes = (
(-136,-196,o),
(-58,-120,o),
(58,-120,o),
(136,-196,o),
(136,-253,qs),
(136,-308,o),
(58,-385,o),
(-58,-385,o),
(-136,-308,o),
(-136,-253,qs)
);
}
);
width = 0;
}
);
}
{
glyphname = eight.dnom;
layers = (
{
layerId = m001;
shapes = (
{
closed = 1;
nodes = (
(50,334,o),
(193,390,q),
(131,417,o),
(74,502,o),
(74,555,qs),
(74,650,o),
(233,772,o),
(516,772,o),
(675,650,o),
(675,555,qs),
(675,502,o),
(618,417,o),
(556,390,q),
(699,334,o),
(699,202,qs),
(699,103,o),
(531,-23,o),
(218,-23,o),
(50,103,o),
(50,202,qs)
);
},
{
closed = 1;
nodes = (
(301,107,o),
(448,107,o),
(527,164,o),
(527,264,o),
(448,319,o),
(301,319,o),
(222,264,o),
(222,164,o)
);
},
{
closed = 1;
nodes = (
(243,450,o),
(506,450,o),
(506,545,qs),
(506,642,o),
(243,642,o),
(243,545,qs)
);
}
);
width = 749;
}
);
}
{
glyphname = f_t;
layers = (
{
layerId = m001;
shapes = (
{
closed = 1;
nodes = (
(28,843,l),
(28,1014,l),
(218,1014,l),
(218,1124,ls),
(218,1300,o),
(396,1483,o),
(568,1483,qs),
(636,1483,o),
(697,1472,q),
(697,1298,l),
(670,1303,o),
(619,1308,o),
(596,1308,qs),
(430,1308,o),
(430,1119,qs),
(430,1014,l),
(620,1014,l),
(620,843,l),
(430,843,l),
(430,0,l),
(218,0,l),
(218,843,l)
);
},
{
closed = 1;
nodes = (
(835,843,l),
(689,843,l),
(689,1014,l),
(835,1014,l),
(835,1310,l),
(1047,1310,l),
(1047,1014,l),
(1298,1014,l),
(1298,843,l),
(1047,843,l),
(1047,345,ls),
(1047,245,o),
(1118,168,o),
(1213,168,qs),
(1231,168,o),
(1276,171,o),
(1298,175,q),
(1298,0,l),
(1263,-6,o),
(1200,-13,o),
(1168,-13,qs),
(995,-13,o),
(835,144,o),
(835,316,qs)
);
}
);
width = 1337;
}
);
}
{
glyphname = four.dnom;
layers = (
{
layerId = m001;
shapes = (
{
closed = 1;
nodes = (
(12,168,l),
(12,284,l),
(399,749,l),
(587,749,l),
(587,303,l),
(718,303,l),
(718,168,l),
(587,168,l),
(587,0,l),
(422,0,l),
(422,168,l)
);
},
{
closed = 1;
nodes = (
(194,303,l),
(422,303,l),
(422,579,l)
);
}
);
width = 737;
}
);
}
{
glyphname = g.alt;
layers = (
{
layerId = m001;
shapes = (
{
closed = 1;
nodes = (
(54,-9,o),
(249,63,q),
(188,112,o),
(188,196,qs),
(188,295,o),
(294,379,q),
(211,425,o),
(120,581,o),
(120,681,qs),
(120,839,o),
(340,1037,o),
(530,1037,qs),
(682,1037,o),
(787,970,q),
(843,1085,o),
(988,1085,qs),
(1034,1085,o),
(1073,1076,q),
(1073,928,l),
(1047,934,o),
(1003,938,o),
(984,938,qs),
(906,938,o),
(867,899,q),
(940,809,o),
(940,681,qs),
(940,524,o),
(720,325,o),
(530,325,qs),
(465,325,o),
(408,338,q),
(359,295,o),
(359,253,qs),
(359,170,o),
(472,170,qs),
(677,170,ls),
(868,170,o),
(1054,21,o),
(1054,-112,qs),
(1054,-273,o),
(766,-443,o),
(509,-443,qs),
(295,-443,o),
(54,-309,o),
(54,-175,qs)
);
},
{
closed = 1;
nodes = (
(254,-287,o),
(525,-287,qs),
(686,-287,o),
(851,-201,o),
(851,-124,qs),
(851,-56,o),
(758,8,o),
(653,8,qs),
(470,8,ls),
(367,8,o),
(254,-71,o),
(254,-148,qs)
);
},
{
closed = 1;
nodes = (
(433,484,o),
(628,484,o),
(736,593,o),
(736,770,o),
(628,879,o),
(433,879,o),
(324,770,o),
(324,593,o)
);
}
);
width = 1104;
}
);
}
{
glyphname = gravecomb.cap;
layers = (
{
layerId = m001;
shapes = (
{
closed = 1;
nodes = (
(-58,1520,l),
(-303,1838,l),
(-51,1838,l),
(147,1520,l)
);
}
);
width = 0;
}
);
}
{
glyphname = six.dnom;
layers = (
{
layerId = m001;
shapes = (
{
closed = 1;
nodes = (
(49,560,o),
(234,772,o),
(393,772,qs),
(513,772,o),
(670,659,o),
(691,560,q),
(516,560,l),
(485,636,o),
(388,636,qs),
(306,636,o),
(218,518,o),
(214,376,q),
(289,490,o),
(438,490,qs),
(556,490,o),
(704,354,o),
(704,245,qs),
(704,123,o),
(531,-23,o),
(387,-23,qs),
(230,-23,o),
(49,181,o),
(49,354,qs)
);
},
{
closed = 1;
nodes = (
(457,359,o),
(316,359,o),
(238,294,o),
(238,179,o),
(315,112,o),
(384,112,qs),
(455,112,o),
(532,179,o),
(532,294,o)
);
}
);
width = 749;
}
);
}
{
glyphname = three.dnom;
layers = (
{
layerId = m001;
shapes = (
{
closed = 1;
nodes = (
(410,353,o),
(336,353,qs),
(287,353,o),
(227,338,q),
(227,448,l),
(426,609,l),
(81,609,l),
(81,749,l),
(640,749,l),
(640,629,l),
(439,465,l),
(545,452,o),
(667,326,o),
(667,231,qs),
(667,113,o),
(497,-23,o),
(351,-23,qs),
(216,-23,o),
(58,102,o),
(45,218,q),
(217,218,l),
(235,118,o),
(347,118,qs),
(415,118,o),
(491,179,o),
(491,290,o)
);
}
);
width = 733;
}
);
}
{
glyphname = two.dnom;
layers = (
{
layerId = m001;
shapes = (
{
closed = 1;
nodes = (
(348,326,ls),
(426,383,o),
(487,466,o),
(487,515,qs),
(487,568,o),
(422,627,o),
(363,627,qs),
(245,627,o),
(228,500,q),
(57,500,l),
(68,624,o),
(238,772,o),
(370,772,qs),
(507,772,o),
(665,639,o),
(665,526,qs),
(665,447,o),
(577,316,o),
(477,245,qs),
(329,140,l),
(686,140,l),
(686,0,l),
(71,0,l),
(71,125,l)
);
}
);
width = 739;
}
);
}
{
glyphname = uni0302.cap;
layers = (
{
layerId = m001;
shapes = (
{
closed = 1;
nodes = (
(96,1838,l),
(379,1520,l),
(165,1520,l),
(-2,1690,l),
(-169,1520,l),
(-379,1520,l),
(-96,1838,l)
);
}
);
width = 0;
}
);
}
{
glyphname = uni0304.cap;
layers = (
{
layerId = m001;
shapes = (
{
closed = 1;
nodes = (
(352,1729,l),
(352,1568,l),
(-352,1568,l),
(-352,1729,l)
);
}
);
width = 0;
}
);
}
{
glyphname = uni0306.cap;
layers = (
{
layerId = m001;
shapes = (
{
closed = 1;
nodes = (
(-182,1818,l),
(-182,1748,o),
(-104,1671,o),
(104,1671,o),
(182,1748,o),
(182,1818,q),
(359,1818,l),
(359,1674,o),
(182,1513,o),
(-182,1513,o),
(-359,1674,o),
(-359,1818,q)
);
}
);
width = 0;
}
);
}
{
glyphname = uni0307.cap;
layers = (
{
layerId = m001;
shapes = (
{
closed = 1;
nodes = (
(-59,1786,o),
(59,1786,o),
(139,1708,o),
(139,1591,o),
(59,1513,o),
(-59,1513,o),
(-139,1591,o),
(-139,1708,o)
);
}
);
width = 0;
}
);
}
{
glyphname = uni030A.cap;
layers = (
{
layerId = m001;
shapes = (
{
closed = 1;
nodes = (
(-114,1981,o),
(114,1981,o),
(256,1845,o),
(256,1636,o),
(114,1500,o),
(-114,1500,o),
(-256,1636,o),
(-256,1845,o)
);
},
{
closed = 1;
nodes = (
(50,1857,o),
(-50,1857,o),
(-112,1792,o),
(-112,1689,o),
(-50,1624,o),
(50,1624,o),
(112,1689,o),
(112,1792,o)
);
}
);
width = 0;
}
);
}
{
glyphname = uni030B.cap;
layers = (
{
layerId = m001;
shapes = (
{
closed = 1;
nodes = (
(575,1838,l),
(324,1520,l),
(122,1520,l),
(326,1838,l)
);
},
{
closed = 1;
nodes = (
(128,1838,l),
(-124,1520,l),
(-325,1520,l),
(-121,1838,l)
);
}
);
width = 0;
}
);
}
{
glyphname = uni0326.cap;
layers = (
{
layerId = m001;
shapes = (
{
closed = 1;
nodes = (
(116,-120,l),
(-59,-503,l),
(-230,-503,l),
(-105,-120,l)
);
}
);
width = 0;
}
);
}
{
glyphname = uni0327.cap;
layers = (
{
layerId = m001;
shapes = (
{
closed = 1;
nodes = (
(-144,-362,o),
(-60,-362,qs),
(-3,-362,o),
(62,-322,o),
(62,-287,qs),
(62,-209,o),
(-66,-209,qs),
(-176,-209,l),
(-176,-120,l),
(-33,48,l),
(98,7,l),
(8,-99,l),
(112,-105,o),
(231,-209,o),
(231,-295,qs),
(231,-387,o),
(84,-495,o),
(-42,-495,qs),
(-134,-495,o),
(-197,-470,q),
(-197,-341,l)
);
}
);
width = 0;
}
);
}
{
glyphname = uni0328.round.cap;
layers = (
{
layerId = m001;
shapes = (
{
closed = 1;
nodes = (
(-270,-133,o),
(-94,29,o),
(96,85,q),
(123,35,l),
(9,-23,o),
(-91,-139,o),
(-91,-205,qs),
(-91,-308,o),
(31,-308,qs),
(57,-308,o),
(100,-302,o),
(122,-297,q),
(122,-429,l),
(94,-436,o),
(29,-445,o),
(-6,-445,qs),
(-132,-445,o),
(-270,-334,o),
(-270,-240,qs)
);
}
);
width = 0;
}
);
}
{
glyphname = zero.percent;
layers = (
{
layerId = m001;
shapes = (
{
closed = 1;
nodes = (
(218,689,o),
(508,689,o),
(672,500,o),
(672,166,o),
(508,-23,o),
(218,-23,o),
(54,166,o),
(54,500,o)
);
},
{
closed = 1;
nodes = (
(220,548,o),
(220,117,o),
(506,117,o),
(506,548,o)
);
}
);
width = 726;
}
);
}
